<svg xmlns="http://www.w3.org/2000/svg" width="557.69031" height="638.00452" style="clip-rule:evenodd;fill-rule:evenodd;image-rendering:optimizeQuality;shape-rendering:geometricPrecision;text-rendering:geometricPrecision" viewBox="0 0 557.69031 638.00452"><path fill="none" d="M-5.285-6.057h572.543v653.791H-5.285z" style="fill:#020315;fill-opacity:0"/><defs><linearGradient id="b" x1="0" x2="1" y1="0" y2="0" gradientTransform="scale(995.24302 -995.24302)rotate(39.416 3.419 1.252)" gradientUnits="userSpaceOnUse" spreadMethod="pad"><stop offset="0" style="stop-opacity:1;stop-color:#fff"/><stop offset="1" style="stop-opacity:1;stop-color:#231916"/></linearGradient><linearGradient id="c" x1="0" x2="1" y1="0" y2="0" gradientTransform="scale(995.24302 -995.24302)rotate(39.416 3.419 1.252)" gradientUnits="userSpaceOnUse" spreadMethod="pad"><stop offset="0" style="stop-opacity:1;stop-color:#fff"/><stop offset="1" style="stop-opacity:1;stop-color:#231916"/></linearGradient><clipPath id="a" clipPathUnits="userSpaceOnUse"><path d="M884.621 2455.13H2215.58V932.489H884.621Z"/></clipPath></defs><g clip-path="url(#a)" opacity="0.580002" transform="matrix(.41901 0 0 -.41901 -370.667 1028.73)"><path d="m931.508 2380.036-46.887-10.262.652-47.955c.178-15.809 4.775-387.247 14.441-477.317 5.191-47.153 12.546-93.186 22.634-140.875 75.832-356.578 290.528-626.881 604.605-761.169l23.163-9.969 23.163 9.969c314.136 134.555 528.77 404.857 604.397 761.08 10.174 47.573 17.587 93.661 22.747 140.875 9.642 90.129 14.389 461.597 14.594 477.406l.566 47.985-46.951 10.29c-14.205 2.997-349.37 75.033-620.536 75.033-271.102 0-602.616-72.036-616.588-75.091" style="fill:url(#b);stroke:none"/></g><path d="m931.508 2380.035-46.888-10.261.652-47.955c.179-15.81 4.776-387.247 14.442-477.318 5.191-47.152 12.546-93.186 22.634-140.873 75.831-356.579 290.527-626.881 604.604-761.169l23.165-9.97 23.163 9.97c314.135 134.555 528.768 404.857 604.395 761.078 10.176 47.574 17.587 93.661 22.748 140.876 9.642 90.129 14.388 461.596 14.595 477.406l.565 47.985-46.952 10.289c-14.205 2.997-349.369 75.033-620.534 75.033-271.103 0-602.616-72.036-616.589-75.091" style="fill:url(#c);stroke:none" transform="matrix(.41901 0 0 -.41901 -370.667 1028.73)"/><path d="m0 0-19.901-4.3.267-20.283c.238-15.751 4.863-385.646 14.354-474.085 5.041-46.296 12.219-91.227 22.068-137.493 99.115-466.019 408.864-661.76 584.735-736.882l9.757-4.27 9.785 4.27c303.668 129.96 511.306 391.632 584.65 736.882 9.815 46.266 17.051 91.166 22.037 137.404 9.519 88.528 14.232 458.423 14.382 474.174l.266 20.313-19.809 4.331c-3.409.71-345.786 74.293-613.331 74.293C341.807 74.354 3.351.771 0 0" style="fill:#9e9e9f;fill-opacity:1;fill-rule:nonzero;stroke:none" transform="matrix(.41901 0 0 -.41901 22.717 45.383)"/><path d="M0 0s-48.277 8.36-181.365-6.688c-75.517-8.539-119.422-14.21-242.724-32.191-145.845-21.269-181.942-39.846-181.942-39.846s4.744-304.381 14.177-392.789c5.218-47.573-1.338-43.808 7.594-86.514H0Z" style="fill:#ca1529;fill-opacity:1;fill-rule:nonzero;stroke:none" transform="matrix(.41901 0 0 -.41901 278.851 22.585)"/><path d="M0 0h587.53c9.075 42.59-.986 38.941 4.147 86.514 9.549 88.408 14.324 392.789 14.324 392.789s4.41 17.553-301.798 51.218C-2.005 564.185 0 551.339 0 551.339Z" style="fill:#fff;fill-opacity:1;fill-rule:nonzero;stroke:none" transform="matrix(.41901 0 0 -.41901 278.851 254.737)"/><path d="M0 0v-846.615C76.337-813.963 540.043-601.018 584.114 0Z" style="fill:#ca1529;fill-opacity:1;fill-rule:nonzero;stroke:none" transform="matrix(.41901 0 0 -.41901 278.851 256.406)"/><path d="M0 0h-586.574C-551.459-577.619-76.459-813.963 0-846.615Z" style="fill:#fff;fill-opacity:1;fill-rule:nonzero;stroke:none" transform="matrix(.41901 0 0 -.41901 278.851 256.406)"/><path d="M0 0h2.589C33.83 0 59.154-25.327 59.154-56.571V-185.58c0-31.24-25.324-56.567-56.565-56.567H0v-36.83h197.838v36.83h-2.596c-31.234 0-56.565 25.327-56.565 56.567v129.009C138.677-25.327 164.008 0 195.242 0h2.596v36.829H0Z" style="fill:#fff;fill-opacity:1;fill-rule:nonzero;stroke:none" transform="matrix(.41901 0 0 -.41901 119.113 97.549)"/><path d="M0 0c-9.654-75.211-9.654-75.211-19.292-120.524-71.032-334.514-271.637-588.09-564.868-714.374-170.741 73.524-468.982 263.572-564.864 714.374-9.577 45.375-16.666 89.357-21.621 134.438-8.748 82.33-13.522 426.065-14.058 466.876 39.269 8.335 332.887 72.75 598.585 72.75 248.596 0 563.178-64.476 602.652-72.75m-1207.79 9.519-4.273-.918.15-4.331c0-3.884 4.864-384.663 14.119-472.334 5.041-45.433 12.13-89.773 21.796-135.417 97.25-457.385 400.918-649.301 573.229-723.061l2.137-.863 2.075.863c297.678 127.5 501.19 384.216 573.141 723.061C.814-77.108 7.991-32.768 12.885 12.726c9.43 87.671 14.328 468.45 14.355 472.334l.061 4.331-4.272.918c-3.383.741-343.674 73.876-609.147 73.876-265.406 0-601.759-73.135-605.138-73.876" style="fill:#9e9e9f;fill-opacity:1;fill-rule:nonzero;stroke:none" transform="matrix(.41901 0 0 -.41901 523.602 256.406)"/></svg>