<svg xmlns="http://www.w3.org/2000/svg" width="150" height="146" fill="none" viewBox="0 0 150 146"><g clip-path="url(#a)"><path fill="#fff" d="m142.856 90.91 4.613-5.262-2.552-.58q.918-1.042 1.837-2.078l3.165-3.565-4.661-1.104a289 289 0 0 0-20.84-4.136l-1.295-.16v-.34l.004-35.453a3.5 3.5 0 0 0-2.945-3.443l-9.098-1.495a2.74 2.74 0 0 1-1.243-.549l-.044-.036a2.76 2.76 0 0 1-.854-1.216l-2.08-5.933a3.51 3.51 0 0 0-2.735-2.295l-12.15-2.052-5.185-11.136c-.517-1.114-2.116-1.114-2.637 0l-1.338 2.876a.46.46 0 0 1-.183.2c-.334.207-.664.04-.855-.302-.209-.37-5.874-11.993-5.874-11.993-.529-1.082-2.084-1.082-2.612 0 0 0-5.951 12.208-6.226 12.527-.294.341-.741.145-.932-.261l-1.437-3.09c-.514-1.108-2.102-1.115-2.63-.015l-5.372 11.184-.587.08c-.143.021-3.538.537-5.28.853l-6.234 1.133a3.51 3.51 0 0 0-2.692 2.287l-2.083 5.951a2.7 2.7 0 0 1-.858 1.21 2.85 2.85 0 0 1-1.31.58L28.59 34.79c-1.698.28-2.945 1.736-2.945 3.439V73.67l.007.457-1.327.189c-.107.014-.242.036-.404.058-.344.054-.81.127-1.364.222a505 505 0 0 0-3.979.682c-2.78.487-6.014 1.068-6.975 1.27-.128.026-.223.052-.282.066l-.12.03q-.49.103-.969.246l-.576.15-.01.043c-2.153.751-4.167 2.073-5.799 3.83C1.83 83.085.52 85.775.157 88.487c-.07.476-.102.945-.102 1.395v.149c0 2.755 1.023 5.257 2.882 7.047 1.837 1.769 4.382 2.742 7.158 2.742.803 0 1.628-.084 2.454-.244l.363-.072.051-.026c.022-.003.048-.01.07-.014.286-.058.693-.135 1.188-.225 1.012-.19 2.376-.436 3.788-.687 3.132-.555 5.919-1.03 6.604-1.125l1.35-.189c1.467 11.713 7.906 22.305 17.672 29.073l26.429 18.303a7.5 7.5 0 0 0 4.305 1.348 7.6 7.6 0 0 0 4.335-1.348l26.428-18.303c9.792-6.783 16.235-17.407 17.683-29.15l.679.084a284 284 0 0 1 16.406 3.13c.341.076.69.116 1.038.116h.004a4.32 4.32 0 0 0 3.249-1.441q1.283-1.458 2.567-2.905l3.165-3.565-4.661-1.104c-.796-.19-1.595-.374-2.399-.56z"/><path fill="#AD7F47" d="M55.785 70.82c-.777.048-1.554.095-2.332.15q1.167-.078 2.332-.15M97.522 71.13q-.934-.071-1.874-.138.937.067 1.874.138M108.863 45.973l-.308-.051q.153.033.308.062z"/><path fill="#C40317" d="m44.95 80.714.135.247q2.674 4.903 5.347 9.854c.337.625.85.966 1.357 1.159a3.7 3.7 0 0 0 1.29.225c.155 0 .243-.011.254-.011h.028999999999999998s.037 0 .066-.004q.089-.006.242-.029c.206-.033.491-.094.803-.21.624-.233 1.346-.676 1.782-1.536 1.786-3.544 3.572-7.077 5.358-10.588l.132-.258.08.28c1.108 3.805 2.22 7.614 3.327 11.43 1.734-.051 3.473-.087 5.207-.113q-2.322-7.925-4.639-15.813c-.58-1.96-1.613-2.657-2.376-2.912a3.2 3.2 0 0 0-.91-.13c-.828 0-1.675.32-2.357 1.013-.253.254-.639.828-1.068 1.557-.432.73-.92 1.623-1.404 2.538-.968 1.83-1.918 3.751-2.391 4.655-.63 1.202-1.137 2.491-1.764 3.707l-.099.193-.103-.189c-.627-1.136-1.133-2.353-1.764-3.467-.707-1.257-2.493-4.659-3.788-6.674-.429-.672-.814-1.187-1.063-1.409a2.85 2.85 0 0 0-1.91-.715c-.452 0-.91.098-1.343.287-.766.363-1.8 1.209-2.376 3.253a9290 9290 0 0 0-4.613 16.434q2.585-.322 5.17-.6 1.66-5.96 3.319-11.898l.077-.272zM123.211 95.025a305 305 0 0 1 17.884 3.413q.221.048.437.047c.466 0 .873-.17 1.159-.493q1.39-1.578 2.776-3.145a311 311 0 0 0-16.396-3.42l-.095-.018v-2.785l.135.025a311 311 0 0 1 9.759 1.924c.143.03.286.044.421.044.473 0 .891-.178 1.177-.505q1.177-1.35 2.355-2.69a310 310 0 0 0-13.752-2.803l-.095-.018v-2.785l.135.025c4.009.723 8.002 1.525 11.988 2.407.151.033.294.048.437.048.465 0 .872-.171 1.155-.494q1.39-1.578 2.776-3.145a308 308 0 0 0-22.256-4.415v18.783M28.633 85.173v9.372q2.746-.414 5.497-.774V74.992q-2.62.344-5.233.737l-.264.04zM119.876 75.678l-.135-.022c-3.48-.519-6.983-.973-10.503-1.372h-.158c-2.097 0-3.483 1.202-3.96 1.692-1.012 1.107-2.967 3.602-5.009 6.292a469 469 0 0 0-5.574 7.502l-.21.287V73.002a314 314 0 0 0-5.533-.309v6.808h-.121q-5.764-.276-11.533-.323h-.114V72.37a318 318 0 0 0-5.83.007V91.16a311 311 0 0 1 5.83-.007v-7.378h.114q5.774.053 11.544.32h.11v7.381q4.83.224 9.648.603.111.01.224.01c.829 0 1.58-.362 2.053-.994a1463 1463 0 0 1 8.475-11.209l.022-.032.154-.2v-.007a1.6 1.6 0 0 1 1.408-.541q1.747.207 3.495.435l.099.015v9.593l-.128-.018a287 287 0 0 0-4.28-.527 4 4 0 0 0-.337-.018c-.8 0-1.529.334-2.013.93-.851 1.049-1.698 2.102-2.549 3.155q7.42.74 14.808 1.84v-18.83zM12.714 97.354q.126-.032.363-.08c.308-.065.752-.148 1.283-.254 1.068-.207 2.505-.472 3.994-.748 2.981-.544 6.172-1.11 7.048-1.238.055-.007.095-.015.132-.018V83.339q-3.95.632-7.888 1.372c-.667.124-1.309.56-1.72 1.177q-1.221 1.824-2.442 3.66c2.142-.432 4.283-.843 6.432-1.228l.136-.025v3.068l-.096.018q-3.102.554-6.193 1.173-.496.099-.965.098c-1.096 0-2.06-.396-2.75-1.082-.69-.69-1.1-1.666-1.1-2.825 0-1.321.535-2.629 1.397-3.67.858-1.043 2.046-1.82 3.363-2.088h.01l.015-.008.044-.01.162-.033a325.94 325.94 0 0 1 7.26-1.354c.83-.146 1.614-.669 2.113-1.42q1.338-2.005 2.68-3.998c-.102.015-.23.033-.392.058-.348.055-.825.135-1.39.233-1.13.192-2.614.457-4.143.733-3.055.552-6.286 1.151-7.184 1.35q-.122.028-.184.044v.011l-.066.015c-2.383.483-4.562 1.852-6.22 3.692s-2.79 4.154-3.098 6.525q-.078.561-.08 1.111v.16c0 2.262.791 4.132 2.108 5.44 1.316 1.31 3.165 2.058 5.288 2.058q.941 0 1.944-.2h.003l.037-.014q.037-.01.103-.026M45.296 123.775l26.425 18.304c.759.522 1.64.787 2.52.787s1.781-.261 2.544-.787l26.429-18.304c9.139-6.329 15.043-16.176 16.374-26.992a302 302 0 0 0-5.772-.806c-1.753 9.985-7.444 18.986-15.982 24.897l-23.583 16.332-23.583-16.332c-8.526-5.904-14.214-14.891-15.974-24.861-1.929.254-3.858.52-5.772.81 1.342 10.802 7.242 20.631 16.37 26.952"/><path fill="#fff" d="m74.257 24.931-.007-.033z"/><path fill="#C31B1F" d="M110.443 36.336a5.9 5.9 0 0 1-2.754-1.238l-.003-.004a5.86 5.86 0 0 1-1.819-2.589l-2.156-6.162-6.466-1.176q-3.315-.605-6.688-1.042l1.224 2.57-1.375 2.89c1.962.266 3.913.571 5.846.923l3.322.607 1.108 3.162a11.3 11.3 0 0 0 3.52 5.014 11.35 11.35 0 0 0 5.328 2.404l4.859.799v30.384c1.834.243 3.66.493 5.483.77V37.893l-9.432-1.55z"/><path fill="#C40317" d="m57.005 26.693 1.243-2.607q-3.527.45-6.989 1.082l-6.465 1.176-2.153 6.151a5.84 5.84 0 0 1-1.826 2.6h-.004v.004a5.85 5.85 0 0 1-2.746 1.234l-9.432 1.55v35.78a301 301 0 0 1 5.482-.77v-30.41l4.848-.798a11.37 11.37 0 0 0 5.34-2.404h.003v-.003a11.25 11.25 0 0 0 3.517-5.01l1.107-3.16 3.323-.603c2.02-.37 4.063-.69 6.117-.962l-1.357-2.854z"/><path fill="#fff" d="m74.242 24.32.022.048v-.003z"/><path fill="#A5772E" d="M60.094 108.21h3.85v-4.542l6.847-.033 2.328-2.872h-9.175v-1.638h7.433l2.476-3.086h-13.76zM80.262 99.129s5.585.007 5.82 0l2.332-3.09H79.53c-3.117 0-5.691 2.298-6.091 5.276a5 5 0 0 0-.055.755v.058c0 3.362 2.75 6.086 6.146 6.086h6.56l2.325-3.079v-.008h-8.152c-1.672 0-3.025-1.343-3.025-2.999s1.353-2.995 3.025-2.995zM105.991 94.94c-.352-.036-.704-.076-1.056-.112-.246 2.102-.645 3.58-.814 4.14v.014l-.011.014a30.35 30.35 0 0 1-11.58 15.25l-8.24 5.712c-.07-.182-.14-.367-.22-.552-1.746-3.896-6.521-4.444-7.86-3.929-.81.313-1.228.806-1.444 1.217q.473.03.942.156a5.2 5.2 0 0 1 3.205 2.4c.316.53.528 1.1.638 1.688.459.047.913.345 1.111.479.323.215 1.896 1.435 1.408 4.597-.388 2.506-1.749 4.426-2.544 5.247.59-.214 1.99-.879 3.37-2.698.737-.977 1.675-2.567 1.918-4.575l10.36-7.167c6.046-4.154 10.439-10.08 12.68-16.79.29-.984.664-2.585.873-4.796q-1.365-.151-2.728-.29zm-21.42 25.875 8.992-6.227-8.988 6.227z"/><path fill="#A5772E" d="M80.87 123.637c-.322-.817-.832-1.231-1.25-1.442a5 5 0 0 1-.161.995 5.17 5.17 0 0 1-2.424 3.174 5.2 5.2 0 0 1-1.683.624c-.063.436-.352.864-.48 1.057-.217.319-1.45 1.881-4.643 1.394-2.53-.385-4.474-1.732-5.3-2.52.217.585.888 1.972 2.725 3.337 1.654 1.224 5.054 3.006 9.245 1.166 3.935-1.729 4.489-6.456 3.968-7.782zM78.466 114.415c2.53.385 4.473 1.732 5.299 2.52-.217-.584-.888-1.971-2.725-3.337-1.18-.875-3.253-2.037-5.871-1.953a9 9 0 0 0-3.374.788c-3.935 1.728-4.489 6.456-3.964 7.781.337.857.88 1.271 1.31 1.474q.021-.557.164-1.115a5.17 5.17 0 0 1 2.424-3.173 5.3 5.3 0 0 1 1.632-.617c.08-.407.345-.799.466-.977.216-.32 1.448-1.881 4.642-1.394z"/><path fill="#A5772E" d="M72.489 128.369c.873-.337 1.29-.882 1.492-1.307a5.208 5.208 0 0 1-4.745-4.143c-.484-.014-.986-.345-1.2-.486-.322-.215-1.895-1.435-1.407-4.597.388-2.505 1.749-4.43 2.545-5.247-.59.214-1.992.879-3.37 2.698-.723.955-1.636 2.505-1.9 4.455l-7.859-5.508a30.35 30.35 0 0 1-11.58-15.25l-.008-.014v-.015c-.172-.555-.568-2.019-.814-4.096-.913.091-1.822.193-2.732.29l1.236-.13-1.236.134-1.122.12c.21 2.183.58 3.766.865 4.742 2.241 6.71 6.634 12.636 12.681 16.79l11.592 8.217c1.936 3.369 6.29 3.837 7.558 3.351zM42.855 97.165s-.004-.025-.008-.036c0 .01.004.025.008.036"/><path fill="#A5772E" d="M74.144 117.496a2 2 0 0 0-.194.014q-.099.01-.198.026-.11.018-.224.036a4.5 4.5 0 0 0-1.393.523 4.37 4.37 0 0 0-2.182 3.507q-.01.145-.008.291a3.4 3.4 0 0 0 .026.457 5.249 5.249 0 0 0 .077.48 4.41 4.41 0 0 0 3.817 3.416c.103.011.21.026.316.029q.141.006.29 0c.091 0 .187-.007.278-.014q.105-.007.21-.018.114-.018.23-.04c.503-.091.99-.265 1.442-.53a4.37 4.37 0 0 0 2.181-3.482c.008-.098.008-.196.008-.291q.001-.14-.004-.276c0-.029-.007-.058-.007-.087-.008-.069-.011-.142-.019-.211a5 5 0 0 0-.04-.236 4.4 4.4 0 0 0-.532-1.427 4.4 4.4 0 0 0-2.71-2.029 4.6 4.6 0 0 0-.777-.127q-.148-.01-.3-.015h-.191q-.045.001-.092.007zM77.65 38.708a.59.59 0 0 0-.461-.192.6.6 0 0 0-.466.192q-.176.19-.176.523v2.178a.75.75 0 0 0 .183.512.6.6 0 0 0 .466.19c.19 0 .348-.066.462-.19q.174-.186.172-.515v-2.179a.77.77 0 0 0-.18-.515zM72.248 38.74a.6.6 0 0 0-.466-.193.6.6 0 0 0-.465.192q-.176.191-.176.523l.014 2.179c0 .214.063.385.18.512a.6.6 0 0 0 .466.188.6.6 0 0 0 .462-.188q.17-.187.172-.516l-.014-2.178a.74.74 0 0 0-.18-.516z"/><path fill="#A5772E" d="m108.561 45.927-.821-.135a15.5 15.5 0 0 1-7.254-3.239l-.011-.007-.014-.01a15.2 15.2 0 0 1-4.757-6.725l-.256-.73-.044-.007-.73-.131a120 120 0 0 0-6.924-1.042l-1.166-2.473.415-.926.01-.025c.015-.033.034-.065.048-.095a.6.6 0 0 1 .169-.192c.176-.116.282-.036.323.011.007.007.01.014.018.022q-.001 0 .004.007c.073.113.161.381-.224.795.158-.022.792-.152.987-.966.04-.207.05-.385.043-.54-.043-.658-.462-.861-.579-.901a1 1 0 0 0-.23-.047 1.24 1.24 0 0 0-.635.09 3 3 0 0 0 .12-.272 2 2 0 0 0 .155-.751v-.055c-.015-.32-.125-.49-.125-.49a.7.7 0 0 0-.136-.178.7.7 0 0 0-.242-.134s-.498-.16-.865.38l.56-1.731c.24-.712.694-.548.694-.548.114.032.18.12.209.174a.9.9 0 0 1 .077.385c0 .214-.059.44-.114.606-.058.167-.113.276-.113.276l-.07.13c1.133-.126 1.452-1.194 1.51-1.451.048-.222.078-.454.078-.694 0-.055 0-.105-.004-.16-.066-1.205-.719-1.655-.832-1.728a1.45 1.45 0 0 0-.719-.218h-.07c-.227.007-.821.087-1.33.69l1.609-3.373-1.9-4.078-1.9 4.078 1.61 3.373c-.509-.603-1.1-.683-1.33-.69h-.066a1.43 1.43 0 0 0-.72.218c-.113.069-.766.523-.832 1.728 0 .055-.003.105-.003.16 0 .24.03.472.077.694.062.257.377 1.325 1.51 1.452l-.07-.13s-.054-.11-.113-.277a1.9 1.9 0 0 1-.113-.606.95.95 0 0 1 .077-.385.35.35 0 0 1 .209-.17s.454-.164.693.548l.56 1.732c-.366-.541-.865-.382-.865-.382-.135.044-.223.12-.242.135a.7.7 0 0 0-.135.177s-.11.171-.125.49v.055c0 .2.037.45.154.752q.05.13.12.272a1.25 1.25 0 0 0-.865-.043c-.113.043-.535.243-.579.9-.007.156.004.338.044.541.195.81.829.944.987.966-.385-.414-.297-.683-.224-.795q0-.001.003-.008c.008-.007.011-.014.019-.021.04-.051.147-.127.323-.011.055.04.113.098.168.192a1 1 0 0 1 .063.124l.414.925-.954 2.02q-.994-.082-1.994-.153l-4.559-4.996 1.28-2.55c.18-.355.444-.442.638-.45h.077c.29.026.316.29.32.342 0 .076-.015.17-.056.283a1.7 1.7 0 0 1-.143.265l-.04.054-.143.186h.235c.971.007 1.587-.643 1.705-1.54a1.5 1.5 0 0 0 .018-.254c0-.418-.143-.824-.407-1.133a1.45 1.45 0 0 0-1.126-.512s-.535-.032-1.265.378c.598-1.336-.117-1.885-.297-1.997q-.038-.023-.08-.044-.029-.017-.052-.029c-.037-.018-.084-.029-.128-.043-.044-.015-.088-.033-.132-.04h-.011a1.4 1.4 0 0 0-.246-.022c-.418 0-.803.174-1.052.316l.975-1.656q.1-.164.194-.294.012-.014.022-.03c.507-.649.994-.62 1.167-.584q.121.032.216.077c.154.076.466.305.341.871a2.2 2.2 0 0 1-.36.712l-.073.09-.14.16.214.033q.169.026.333.025c1.375-.003 2.46-1.285 2.465-2.65 0-.636-.239-1.293-.792-1.841a3 3 0 0 0-.598-.458 3 3 0 0 0-.932-.312c-.41-.065-2.013-.203-3.355 1.235l1.874-4.928-2.883-5.903-2.882 5.903 1.874 4.928c-1.342-1.438-2.945-1.3-3.355-1.235-.488.084-.818.25-.932.312a2.9 2.9 0 0 0-.598.458c-.553.548-.792 1.205-.792 1.84 0 1.37 1.09 2.648 2.465 2.651q.165.001.337-.025l.209-.033-.14-.16-.07-.09c-.102-.138-.285-.414-.358-.712-.125-.566.187-.795.34-.871q.09-.044.217-.077c.172-.036.66-.065 1.166.585q.012.014.022.029.1.13.195.294l.971 1.656c-.25-.142-.634-.312-1.049-.316-.08 0-.165.007-.245.025h-.011c-.044.008-.088.026-.132.04s-.088.026-.129.044q-.026.012-.05.029-.044.021-.082.043c-.18.113-.894.661-.297 1.997-.73-.413-1.265-.377-1.265-.377-.473 0-.865.203-1.126.512a1.74 1.74 0 0 0-.403 1.133q-.001.124.018.254c.118.897.737 1.543 1.706 1.54h.234l-.143-.186-.04-.054a2 2 0 0 1-.143-.265.8.8 0 0 1-.055-.284c0-.05.03-.316.319-.34h.081c.198.006.458.093.638.45l1.243 2.476-4.635 5.018q-1.117.07-2.226.163l-.932-1.975.415-.926.01-.026c.015-.032.034-.065.048-.094a.6.6 0 0 1 .169-.192c.176-.117.282-.037.323.01.007.008.01.015.018.022q-.001.001.004.008c.073.112.161.38-.224.795.158-.022.792-.153.986-.966q.058-.309.044-.541c-.044-.657-.462-.86-.579-.9a1 1 0 0 0-.231-.048 1.24 1.24 0 0 0-.634.091q.071-.141.12-.272a2 2 0 0 0 .155-.752v-.054c-.015-.32-.125-.49-.125-.49a.7.7 0 0 0-.136-.178.7.7 0 0 0-.242-.135s-.499-.16-.865.381l.56-1.732c.24-.711.694-.548.694-.548.114.033.18.12.209.174a.9.9 0 0 1 .077.385c0 .215-.059.44-.114.607-.058.167-.113.276-.113.276l-.07.13c1.133-.127 1.452-1.194 1.51-1.452a3.3 3.3 0 0 0 .078-.693q.001-.08-.004-.16c-.066-1.206-.719-1.656-.832-1.729a1.45 1.45 0 0 0-.72-.218h-.069c-.227.008-.821.088-1.33.69l1.609-3.373-1.9-4.077-1.9 4.077 1.61 3.373c-.51-.602-1.1-.682-1.33-.69h-.066a1.43 1.43 0 0 0-.72.218c-.113.07-.766.523-.832 1.729q-.002.08-.003.16c0 .24.029.471.077.693.062.258.377 1.325 1.51 1.452l-.07-.13s-.054-.11-.113-.276a2 2 0 0 1-.114-.607q0-.209.078-.384a.35.35 0 0 1 .209-.171s.454-.164.693.548l.56 1.732c-.366-.541-.865-.381-.865-.381-.136.043-.224.12-.242.134a.7.7 0 0 0-.136.178s-.11.17-.124.49v.055c0 .2.037.45.154.751q.05.13.12.273a1.25 1.25 0 0 0-.865-.044c-.113.044-.535.243-.579.9-.007.157.004.338.044.541.194.81.829.945.986.966-.385-.414-.297-.682-.223-.795q0-.001.003-.007c.008-.007.011-.015.019-.022.04-.05.146-.127.322-.01.056.04.114.097.17.192a1 1 0 0 1 .062.123l.414.926-1.137 2.411c-2.435.29-4.848.654-7.239 1.082l-.777.142-.257.73a15.2 15.2 0 0 1-4.778 6.746l-.011.01-.015.012a15.5 15.5 0 0 1-7.224 3.217l-1.133.185v26.259q1.013-.116 2.031-.218.989-.111 1.984-.21V55.9s4.64-1.213 6.403-2.81v18.154q1.431-.113 2.864-.21.264-.018.528-.037 1.167-.077 2.332-.149.947-.056 1.893-.112V49.238s2.45-1.264 6.406-2.396v23.615q.99-.032 1.977-.058 1.177-.033 2.354-.054.128.001.257-.004c.502-.01 1-.022 1.503-.03v.023h.668V45.542c1.188-.12 5.024-.389 6.762-.044v24.81h.502q.759.012 1.518.03 1.144.02 2.289.047c.832.018 1.66.043 2.493.069h.011V46.177v.585c3.957 1.136 6.407 2.396 6.407 2.396v21.499q.652.035 1.305.076v.066q1.408.081 2.81.174c.238.014.472.032.71.047q.938.066 1.875.138l.916.065V53.156c2.138 1.645 6.418 2.738 6.418 2.738v15.914c.664.065 1.324.138 1.987.21q-.339-.038-.678-.072v-.018l1.339.141q.682.07 1.36.145V46.01q-.154-.028-.308-.062zm-60.452 3.612c0-1.129-.91-2.047-2.043-2.073a2.087 2.087 0 0 0 2.043-2.077c0 1.144.939 2.073 2.094 2.073-1.155 0-2.094.93-2.094 2.074zm10.22-5.983c0-1.594-1.287-2.89-2.89-2.93 1.603-.044 2.89-1.34 2.89-2.934 0 1.619 1.328 2.93 2.963 2.93-1.635 0-2.963 1.314-2.963 2.934m3.854-14.593-.014-.022s-.26-.432 0-.89a.3.3 0 0 1 .058-.061q.001.001.008-.004c.007-.003.01-.01.018-.014.04-.026.077-.033.084-.037.048 0 .103.011.158.07a.6.6 0 0 1 .073.083c.114.141.191.417.224.751l.154 1.518-.77-1.387zm1.588 1.387.154-1.514c.033-.338.11-.61.224-.752q.039-.047.073-.083c.055-.059.11-.073.158-.07a.2.2 0 0 1 .084.037c.008.004.011.01.019.015q0 0 .007.003c.018.018.04.036.059.062.26.461 0 .89 0 .89s-.012.014-.015.021l-.77 1.387zm1.606 12.846-.025-.857 1.895-2.327q.143-.179.202-.32.06-.14.055-.32a.67.67 0 0 0-.183-.468q-.173-.174-.477-.163a.66.66 0 0 0-.44.152q-.193.175-.183.534l-.965.03q-.021-.705.418-1.13c.294-.283.671-.432 1.14-.447q.71-.022 1.17.374.458.397.481 1.093.01.361-.121.636a3.4 3.4 0 0 1-.403.577l-1.42 1.74 2.036-.062.029.856zm10.793-19.41q.033-.216.11-.386l-.015.008c.015-.03.03-.051.048-.08.018-.033.033-.066.055-.095.282-.421.63-.338.663-.327h.008q.065.015.113.037c.26.141.364.424.4.642-.528.378-1.118.992-1.672 1.997l.293-1.797zm-4.603-.197c.037-.214.14-.501.4-.643.03-.014.07-.029.114-.036h.007c.033-.01.382-.094.664.327l.055.094c.015.03.03.047.048.08l-.015-.007c.051.112.084.243.11.385l.293 1.797c-.55-1.006-1.144-1.62-1.672-1.997zm1.368 19.004q-.439.405-1.126.41-.674.001-1.129-.395c-.323-.287-.484-.668-.488-1.151l-.014-2.2c0-.48.154-.865.473-1.155q.45-.407 1.122-.41.676-.001 1.122.395.483.431.488 1.151l.014 2.2q0 .725-.465 1.155zm1.669-5.54c0-2.077-1.676-3.762-3.759-3.813 2.083-.054 3.759-1.743 3.759-3.816 0 2.106 1.723 3.812 3.854 3.812-2.127 0-3.854 1.707-3.854 3.817m3.718 5.511q-.444.405-1.126.407-.674 0-1.129-.4-.484-.43-.484-1.15v-2.2c-.007-.48.154-.865.473-1.155q.45-.406 1.126-.407.677 0 1.118.403.484.431.484 1.151v2.2c.008.487-.15.868-.465 1.155zm5.35-1.637q.216.337.199.762c-.019.49-.195.864-.525 1.13q-.495.395-1.228.366-.732-.028-1.177-.443-.48-.444-.448-1.187.017-.424.253-.744.164-.229.455-.404a1.4 1.4 0 0 1-.378-.41 1.24 1.24 0 0 1-.172-.697q.026-.676.51-1.064c.322-.261.711-.377 1.17-.363q.686.026 1.136.45.446.42.418 1.104-.016.382-.22.675a1.5 1.5 0 0 1-.414.389c.176.13.319.276.418.436zm.584-11.964-.015-.022s-.26-.432 0-.89a.3.3 0 0 1 .059-.061q0 .001.007-.004.009-.006.018-.014c.04-.026.077-.033.085-.037.047 0 .102.011.157.07a.6.6 0 0 1 .074.083c.113.141.19.417.223.751l.154 1.518-.77-1.387zM86 28.836c.033-.338.11-.61.224-.752q.04-.047.073-.083c.055-.059.11-.073.158-.07a.2.2 0 0 1 .084.037c.008.004.011.01.019.015q0 0 .007.003c.018.018.04.036.059.062.26.461 0 .89 0 .89l-.015.021-.77 1.387.154-1.514zm3.862 14.72c0-1.594-1.287-2.89-2.89-2.93 1.603-.044 2.89-1.34 2.89-2.934 0 1.619 1.327 2.93 2.963 2.93-1.636 0-2.963 1.314-2.963 2.934m11.093 5.983c0-1.129-.91-2.047-2.043-2.073a2.09 2.09 0 0 0 2.043-2.077c0 1.144.939 2.073 2.094 2.073-1.155 0-2.094.93-2.094 2.074z"/><path fill="#A5772E" d="M82.304 38.735a.64.64 0 0 0-.477.17.64.64 0 0 0-.21.465.634.634 0 0 0 .632.683.62.62 0 0 0 .476-.167.66.66 0 0 0 .202-.465.65.65 0 0 0-.165-.475.63.63 0 0 0-.458-.211M82.217 40.883a.7.7 0 0 0-.525.19.7.7 0 0 0-.23.508.707.707 0 0 0 .697.748.71.71 0 0 0 .527-.186.7.7 0 0 0 .228-.504.7.7 0 0 0-.187-.52.7.7 0 0 0-.51-.232z"/></g><defs><clipPath id="a"><path fill="#fff" d="M0 0h150v146H0z"/></clipPath></defs></svg>