<svg xmlns="http://www.w3.org/2000/svg" width="657.024" height="656.64"><desc>CopyRight:SVG Design Editor;
configurationStart;Unit=smInches;Dpi=96;Division=4;Grid=True;Zoom=1;CanvasW=657.024;CanvasH=656.64;configurationEnd;</desc><defs><clipPath id="a"><path d="M0-.276h1062.992V595H0z"/></clipPath></defs><g fill-rule="winding"><path d="M758.59 297.23c0-125.54-101.77-227.32-227.32-227.32-125.54 0-227.32 101.77-227.32 227.32 0 125.54 101.77 227.32 227.32 227.32s227.32-101.78 227.32-227.32" clip-path="url(#a)" style="fill:#4cc4e1;stroke:none;stroke-width:1" transform="matrix(1.33333 0 0 -1.33333 -380 724.117)" vector-effect="non-scaling-stroke"/><path d="M531.27 55.18c-133.47 0-242.05 108.58-242.05 242.05 0 133.46 108.58 242.05 242.05 242.05S773.32 430.7 773.32 297.23 664.74 55.18 531.27 55.18" clip-path="url(#a)" style="fill:#65cdef;stroke:none;stroke-width:1" transform="matrix(1.33333 0 0 -1.33333 -380 724.117)" vector-effect="non-scaling-stroke"/><path d="M758.59 297.23c0-125.54-101.77-227.32-227.32-227.32-125.54 0-227.32 101.77-227.32 227.32 0 125.54 101.77 227.32 227.32 227.32s227.32-101.78 227.32-227.32" clip-path="url(#a)" style="fill:#fff;stroke:none;stroke-width:1" transform="matrix(1.33333 0 0 -1.33333 -380 724.117)" vector-effect="non-scaling-stroke"/><path d="M531.27 65.49c-127.78 0-231.74 103.96-231.74 231.74s103.96 231.74 231.74 231.74 231.74-103.96 231.74-231.74S659.05 65.49 531.27 65.49m0 454.64c-122.91 0-222.9-99.99-222.9-222.9s99.99-222.9 222.9-222.9 222.9 99.99 222.9 222.9-99.99 222.9-222.9 222.9" clip-path="url(#a)" style="fill:#ac0c3c;stroke:none;stroke-width:1" transform="matrix(1.33333 0 0 -1.33333 -380 724.117)" vector-effect="non-scaling-stroke"/><path d="M437.28 444.78v.11l-.86 28.34-9.3-6.52 2.32-.2.89-18.64-16.96 7.27.5 2.28-11.4-8 26.51-10.46 5.54-7.91-.23-2.9 11.23 7.88-2.63.74-5.62 8.01z" clip-path="url(#a)" style="fill:#ac0c3c;stroke:none;stroke-width:1" transform="matrix(1.33333 0 0 -1.33333 -380 724.333)" vector-effect="non-scaling-stroke"/><path d="M476.45 484.61c-1.7.66-3.58.99-5.62.99-3.05 0-6.46-.73-10.22-2.2-12.77-4.99-16.82-12.95-12.37-24.33 4.58-11.73 13.13-14.96 26.14-9.88 6.16 2.4 10.27 5.66 12.22 9.68 1.95 4.01 1.81 8.92-.4 14.59-2.25 5.75-5.53 9.5-9.75 11.14m.88-23.69c-.78-2.36-2.66-4.13-5.58-5.27-1.57-.61-3.04-.92-4.41-.92s-2.64.31-3.8.92c-2.29 1.22-4.17 3.68-5.58 7.3-2.68 6.87-.99 11.55 5.02 13.9 6.13 2.39 10.67-.02 13.47-7.19 1.36-3.47 1.65-6.42.88-8.75" clip-path="url(#a)" style="fill:#ac0c3c;stroke:none;stroke-width:1" transform="matrix(1.33333 0 0 -1.33333 -380 724.117)" vector-effect="non-scaling-stroke"/><path d="m531.38 497-11.15-1.22 1.93-1.92 2.12-19.38-21.43 19.4-10.42-1.14 2.04-2.22 3.38-30.87-1.49-2.37 11.16 1.22-2.07 2.03-2.15 19.61 22.56-19.63 7.58.83-3.64 33.24 1.58 2.43zM579.12 472.04l-11.46 1.79 1.39-2.57-1.18-7.57-.26-.04c-1.57-.26-3.53-.21-5.83.15-6.86 1.07-9.76 5.33-8.61 12.67.58 3.72 1.92 6.42 3.97 8.02 2.06 1.61 4.88 2.15 8.38 1.61 4.39-.68 8.84-2.66 13.23-5.87l1.63 10.44-2.42-1.58-.2.12c-3.24 1.91-6.85 3.18-10.71 3.79-2.33.36-4.49.55-6.48.55-10.37 0-16.2-4.93-17.76-14.96-1.94-12.42 3.3-19.43 16-21.41 7.77-1.21 13.87-.95 18.12.78l2.2 14.11zM593.67 450.27l10.51 29.5 2.34 1.41-12.92 4.61.99-2.74-10.48-29.39-2.5-1.49 12.93-4.61-.92 2.58.05.12zM651.2 457.01l-9.66 5.71.4-2.7-9.92-16.79-5.51 28.37-9.03 5.34.3-3-.06-.1-15.74-26.63-2.62-1 9.66-5.71-.43 2.86 10.04 16.98 6.29-29.24 6.56-3.88 17.02 28.79 2.72 1zM364.84 216.61l4.51-9.17-.53-2.22 7.23 3.55-2.08.94-4.51 9.17 5.95 2.92 6.96-14.16-.5-2.33 6.22 3.05-11.96 24.35-.94-2.08-.12-.06-23.03-11.31-2.2.53 4.89-9.96.9 2.24 9.22 4.53z" clip-path="url(#a)" style="fill:#ac0c3c;stroke:none;stroke-width:1" transform="matrix(1.33333 0 0 -1.33333 -380 724.333)" vector-effect="non-scaling-stroke"/><path d="M398.84 195.07c-4.05 5.35-8.24 8.02-12.66 8.02-3 0-6.1-1.23-9.33-3.67-8.25-6.24-8.89-13.73-1.96-22.88 6.62-8.75 13.76-10.03 21.83-3.93 8.18 6.19 8.88 13.54 2.13 22.45m-7.26-15.67c-2.37-1.79-4.54-2.69-6.51-2.69-2.18 0-4.1 1.1-5.76 3.29-3.39 4.48-2.48 8.75 2.72 12.68 4.89 3.7 9.01 3.4 12.25-.88 3.31-4.37 2.4-8.54-2.69-12.4M425.59 147.39c6.71 7.76 5.85 15.09-2.61 22.4-4.2 3.62-8.11 5.44-11.78 5.44-3.78 0-7.31-1.93-10.64-5.78-3.34-3.87-4.8-7.74-4.33-11.49.47-3.77 2.89-7.57 7.19-11.29 4.12-3.55 8.07-5.31 11.73-5.17 3.66.12 7.17 2.1 10.44 5.89m-6.44 5.56c-2.02-2.34-4.07-3.7-6.08-4.03-.34-.06-.67-.08-1.01-.08-1.7 0-3.39.72-5.04 2.14-4.25 3.67-4.25 8.03.01 12.96 4.01 4.64 8.1 5.21 12.16 1.7 2.07-1.78 3.11-3.77 3.09-5.9-.02-2.11-1.07-4.39-3.14-6.79" clip-path="url(#a)" style="fill:#ac0c3c;stroke:none;stroke-width:1" transform="matrix(1.33333 0 0 -1.33333 -380 724.117)" vector-effect="non-scaling-stroke"/><path d="m458.96 136.52 3.84 6.78-25.5 14.46-3.84-6.77 2.11.36 7.7-4.36-10.42-18.37-2.14-.82 9.61-5.45-.36 2.11 10.47 18.46 7.73-4.38.79-2.01z" clip-path="url(#a)" style="fill:#ac0c3c;stroke:none;stroke-width:1" transform="matrix(1.33333 0 0 -1.33333 -380 724.333)" vector-effect="non-scaling-stroke"/><path d="M487.28 112.02c1.26 3.73.55 6.32-2.18 7.94l-1.49.89 1.73-.21c3.15-.37 5.24 1.1 6.39 4.5.86 2.55.65 4.68-.65 6.53-1.31 1.86-3.76 3.41-7.29 4.6l-17.17 5.81.67-2.55-8.13-24.02-1.87-1.23 17.11-5.79c7.07-2.4 11.29-1.24 12.91 3.53m-7.37 3.96c-.45-1.32-1.43-1.98-2.93-1.98-.78 0-1.7.18-2.75.53l-6.21 2.1 2.15 6.36 6.31-2.14c1.47-.5 2.51-1.15 3.08-1.95.61-.83.72-1.82.34-2.93m3.49 10.33c-.33-.98-1.01-1.57-2.02-1.77-.26-.05-.53-.08-.82-.08-.8 0-1.76.19-2.89.57l-6.11 2.07 2.15 6.36 6.01-2.03c1.57-.53 2.67-1.22 3.29-2.06q.975-1.32.39-3.06" clip-path="url(#a)" style="fill:#ac0c3c;stroke:none;stroke-width:1" transform="matrix(1.33333 0 0 -1.33333 -380 723.901)" vector-effect="non-scaling-stroke"/><path d="m504.79 131.58.6-2-.09-.14-16.58-25.32 9.44-1.26-1.19 2.05 2.21 3.24 14.71-1.97 1.05-3.69-1.67-1.66 11.08-1.48-10.3 30.99-9.25 1.24zm-3.28-18.96 7.19 11.14 3.9-12.62zM556.4 106.83l-14.6-.9-1.36 22.05 1.25 1.85-10.85-.67 1.56-1.67 1.59-25.76-1.34-1.85 26.19 1.62-.43 6.96zM590.68 114.65l-14.19-3.55-5.36 21.43.89 2.05-10.54-2.64 1.84-1.36 6.26-25.04-.98-2.06 25.45 6.37-1.69 6.76-1.68-1.97z" clip-path="url(#a)" style="fill:#ac0c3c;stroke:none;stroke-width:1" transform="matrix(1.33333 0 0 -1.33333 -380 724.333)" vector-effect="non-scaling-stroke"/><path d="m639.82 134.27-2.41 4.41c-1.66-2.3-4.74-4.7-9.17-7.12-2.57-1.41-4.91-1.79-6.96-1.13-2.04.65-3.83 2.35-5.3 5.04-1.5 2.73-1.98 5.18-1.44 7.28.54 2.11 2.13 3.89 4.7 5.3 3.41 1.87 7.28 2.83 11.49 2.85l-4.04 7.38-.74-2.11-.21-.04c-3.56-.65-6.68-1.69-9.27-3.11-5.11-2.8-8.38-6.01-9.74-9.54-1.35-3.52-.83-7.48 1.52-11.79 4.96-9.06 12.44-10.69 22.86-4.99 3.7 2.03 6.63 4.58 8.71 7.59" clip-path="url(#a)" style="fill:#ac0c3c;stroke:none;stroke-width:1" transform="matrix(1.33333 0 0 -1.33333 -380 724.117)" vector-effect="non-scaling-stroke"/><path d="m663.7 158.14-11.18-9.25-14.09 17.02-.08 2.23-8.37-6.93 2.24-.43 16.46-19.88v-2.29l20.21 16.73-4.45 5.37-.67-2.5-.09-.07z" clip-path="url(#a)" style="fill:#ac0c3c;stroke:none;stroke-width:1" transform="matrix(1.33333 0 0 -1.33333 -380 724.333)" vector-effect="non-scaling-stroke"/><path d="M690.57 184.58c.06 3.05-1.4 5.81-4.34 8.22l-12.82 10.51-.45 2.23-6.9-8.43 2.23-.07 12.82-10.5c2.93-2.4 3.01-5.32.26-8.69-2.74-3.34-5.64-3.8-8.62-1.36l-12.74 10.44-.45 2.23-6.9-8.43 2.14-.01 12.76-10.45c6.05-4.96 12.04-3.67 18.28 3.95 3.1 3.78 4.7 7.26 4.76 10.34M706.8 223.64c-3.47 1.85-6.15 1.57-8.19-.86l-1.12-1.33.48 1.67c.88 3.05-.24 5.35-3.4 7.03-4.75 2.53-8.77.55-12.27-6.03l-8.52-16 2.62.25.1-.05 22.29-11.87.91-2.05 8.48 15.94c3.51 6.59 3.05 10.94-1.39 13.31m-17.43-13.07-5.93 3.16 2.98 5.6c.78 1.46 1.64 2.44 2.56 2.92.97.5 2.01.46 3.09-.12.91-.48 1.39-1.25 1.42-2.28.03-.97-.33-2.14-1.09-3.58zm12.83.6-3.08-5.79-5.93 3.16 3.13 5.88c1.87 3.51 3.95 3.35 5.37 2.59.95-.5 1.46-1.28 1.53-2.3.06-.97-.27-2.13-1.02-3.54" clip-path="url(#a)" style="fill:#ac0c3c;stroke:none;stroke-width:1" transform="matrix(1.33333 0 0 -1.33333 -380 724.117)" vector-effect="non-scaling-stroke"/><path d="M671.93 297.3c0-77.69-62.98-140.66-140.66-140.66-77.69 0-140.66 62.98-140.66 140.66 0 77.69 62.98 140.66 140.66 140.66 77.69 0 140.66-62.98 140.66-140.66" clip-path="url(#a)" style="fill:#65cdef;stroke:none;stroke-width:1" transform="matrix(1.33333 0 0 -1.33333 -380 724.117)" vector-effect="non-scaling-stroke"/><path d="M531.27 166.38c-72.18 0-130.91 58.73-130.91 130.91S459.09 428.2 531.27 428.2s130.91-58.73 130.91-130.91-58.73-130.91-130.91-130.91m0 257.41c-69.75 0-126.49-56.74-126.49-126.49s56.74-126.49 126.49-126.49 126.49 56.74 126.49 126.49-56.74 126.49-126.49 126.49" clip-path="url(#a)" style="fill:#fff;stroke:none;stroke-width:1" transform="matrix(1.33333 0 0 -1.33333 -380 724.117)" vector-effect="non-scaling-stroke"/><path d="m344.58 315.31 4.12-4.14v-9.05l-12.05-13.09v-4.51h6.68v4.2h5.37v-9.59h-17.44v12.51l12.07 12.81v5.47h-6.68v-4.2h-5.39v5.45l4.12 4.14h9.19zM367.1 315.33l4.12-4.14v-27.93l-4.12-4.12h-9.19l-4.12 4.12v27.93l4.12 4.14zm-1.25-5.39h-6.68v-25.42h6.68zM704.64 315.32l4.12-4.14v-9.05l-12.05-13.09v-4.51h6.68v4.2h5.37v-9.59h-17.44v12.51l12.07 12.81v5.47h-6.68v-4.2h-5.39v5.45l4.12 4.14h9.19zM727.15 315.32l4.12-4.12v-5.47h-5.39v4.2h-6.68v-7.74h7.94l4.12-4.12v-14.78l-4.12-4.14h-9.19l-4.12 4.14v27.91l4.12 4.12h9.19zm-7.94-30.79h6.68v12.23h-6.68z" clip-path="url(#a)" style="fill:#65cdef;stroke:none;stroke-width:1" transform="matrix(1.33333 0 0 -1.33333 -380 724.333)" vector-effect="non-scaling-stroke"/><path d="M638.77 410.75c-48.02 1.2-86.99 21.46-101.52 30.11l-5.99 3.56-5.99-3.56c-14.53-8.65-53.5-28.9-101.52-30.11l-11.41-.29V300.97l.1-.77c3.52-26.22 11.91-51.06 24.94-73.85 10.55-18.45 24.16-35.61 40.43-50.99 19.7-18.63 38.4-30.04 47.8-35.18l5.63-3.08 5.62 3.09c9.62 5.29 28.73 16.97 48.53 35.85 16.11 15.36 29.58 32.47 40.02 50.85 12.86 22.64 21.15 47.31 24.64 73.32l.1.77v109.49l-11.41.29z" clip-path="url(#a)" style="fill:#ac0c3c;stroke:none;stroke-width:1" transform="matrix(1.33333 0 0 -1.33333 -380 724.333)" vector-effect="non-scaling-stroke"/><path d="m531.26 144.61-2.46 1.35c-9.12 4.99-27.27 16.07-46.44 34.19-15.8 14.94-29.01 31.59-39.24 49.48-12.61 22.04-20.73 46.09-24.13 71.46l-.04.68v102.29l4.99.12c49.57 1.24 89.74 22.11 104.72 31.03l2.62 1.56 2.62-1.56c14.97-8.92 55.15-29.79 104.72-31.03l4.99-.12-.04-102.97c-3.38-25.17-11.4-49.04-23.84-70.95-10.12-17.82-23.19-34.42-38.84-49.33-19.26-18.36-37.81-29.71-47.15-34.84l-2.46-1.35zm-102.08 157.5c3.26-23.93 10.94-46.61 22.83-67.4 9.73-17.02 22.31-32.87 37.39-47.12 16.73-15.82 32.61-26 41.86-31.27 9.46 5.41 25.71 15.84 42.56 31.9 14.92 14.23 27.37 30.03 37 46.98 11.73 20.66 19.32 43.17 22.55 66.91v92.02c-47.04 2.38-85.29 21.1-102.09 30.75-16.8-9.65-55.05-28.38-102.09-30.75v-92.02z" clip-path="url(#a)" style="fill:#65cdeb;stroke:none;stroke-width:1" transform="matrix(1.33333 0 0 -1.33333 -380 724.333)" vector-effect="non-scaling-stroke"/><path d="m520.16 373.72.01-37.87 11.1-11.1 11.1 11.1.06 38.04c-.37 2.28.09 11.03 2.92 18.16l-14.08 18.67-14.08-18.67c3.38-8.49 3-17.75 2.97-18.33" clip-path="url(#a)" style="fill:#65cdef;stroke:none;stroke-width:1" transform="matrix(1.33333 0 0 -1.33333 -380 724.117)" vector-effect="non-scaling-stroke"/><path d="m615.31 358.01-26.59 22.46 1.07-5.16c.04-.3.74-6.23-4.42-12.02l-52.14-52.15-1.96-1.82-1.93 1.79-52.14 52.14c-5.19 5.83-4.49 11.75-4.46 12l1.08 5.22-26.59-22.46c8.34-3.81 14.32-10.5 14.38-10.57l58.56-58.55v-77.86c.04-.97.33-9.89-2.98-18.2l14.08-18.67 14.08 18.67c-3.39 8.53-3 17.8-2.97 18.33l-.01 77.72 58.59 58.58c.03.04 6.04 6.74 14.35 10.54" clip-path="url(#a)" style="fill:#65cdef;stroke:none;stroke-width:1" transform="matrix(1.33333 0 0 -1.33333 -380 724.117)" vector-effect="non-scaling-stroke"/><path d="M477.04 261.62v15.23c-7.2 10.16-8.23 21.83-8.27 22.33l-.37 4.55 1.78-4.2c2.07-4.87 7.54-14.01 8.17-15.04l27.55-24.53c-1.85 24.05-9.61 31.3-9.69 31.37l-36.37 36.37c-.09.11-4.15 5.12-6.81 8.51.29-3.15.86-8.68 1.69-12.94 1.9-9.74 1.16-54.24 1.13-56.13 0-7.25.47-8.92.57-9.2L504.75 211c-5.54 26.74-20.31 42.65-27.52 50.41l-.2.21z" clip-path="url(#a)" style="fill:#65cdef;stroke:none;stroke-width:1" transform="matrix(1.33333 0 0 -1.33333 -380 724.333)" vector-effect="non-scaling-stroke"/><path d="m602.75 327.76-36.42-36.42c-.08-.07-7.84-7.33-9.69-31.37l27.55 24.53c.62 1.03 6.1 10.17 8.16 15.04l1.78 4.2-.37-4.55c-.04-.49-1.07-12.17-8.27-22.33v-15.23l-.2-.21c-7.2-7.76-21.97-23.67-27.51-50.41l48.33 46.95c.11.29.57 1.98.57 9.21-.03 1.88-.78 46.37 1.13 56.12.83 4.25 1.4 9.79 1.69 12.94-2.65-3.39-6.71-8.39-6.76-8.45" clip-path="url(#a)" style="fill:#65cdef;stroke:none;stroke-width:1" transform="matrix(1.33333 0 0 -1.33333 -380 724.117)" vector-effect="non-scaling-stroke"/></g></svg>