<?xml version="1.0" encoding="UTF-8"?>
<svg version="1.1" xmlns="http://www.w3.org/2000/svg" width="1285" height="1113">
<path d="M0 0 C2.66059351 -0.01760333 5.32015741 -0.04271838 7.98049051 -0.07698917 C13.76005337 -0.13626091 19.53613188 -0.12522944 25.31566238 -0.06754684 C33.90911326 0.01798404 42.4998832 -0.00553378 51.09351839 -0.05050677 C66.44098304 -0.12728194 81.78680642 -0.09640638 97.13419193 -0.02075821 C110.56281422 0.04498638 123.99087532 0.07286558 137.41965675 0.06344604 C138.31054695 0.06286548 139.20143714 0.06228491 140.119324 0.06168675 C143.73574387 0.05926192 147.35216351 0.05663944 150.96858302 0.05373352 C184.88740386 0.02688889 218.80523312 0.105946 252.7237768 0.23598979 C282.86163061 0.35098122 312.99850574 0.38539627 343.1365509 0.34790039 C350.85558893 0.33839052 358.57462696 0.32892939 366.29366589 0.32017517 C367.24395849 0.31909232 368.19425109 0.31800947 369.17334044 0.31689381 C394.35552339 0.28933507 419.53761502 0.32311015 444.71974546 0.37642765 C447.42897141 0.38211066 450.13819739 0.38778209 452.84742342 0.39343063 C454.64465489 0.39719143 456.44188626 0.40100017 458.23911753 0.40485718 C470.77206863 0.4312548 483.30482539 0.4337821 495.83779314 0.42000723 C511.98638068 0.40231697 528.13395855 0.42675841 544.28228255 0.5260458 C552.82395579 0.57732218 561.36393131 0.59305869 569.90569468 0.55754548 C575.60941057 0.53745951 581.31163553 0.5645826 587.01500464 0.63034171 C590.26694145 0.66653715 593.51473422 0.67516212 596.76679673 0.64093626 C615.57335407 0.46068172 615.57335407 0.46068172 620.05532958 3.623492 C623.26258445 7.06396641 624.70283937 10.96942642 626.28230286 15.37231445 C627.49642205 17.55358622 628.74365982 19.71705188 630.03620911 21.8527832 C631.30774405 24.0873213 632.57721052 26.32303747 633.84480286 28.55981445 C635.24866313 31.02788198 636.65424506 33.49496809 638.05964661 35.9621582 C638.41236633 36.58184479 638.76508606 37.20153137 639.12849426 37.83999634 C642.70023472 44.11298852 646.29935437 50.37008095 649.90730286 56.62231445 C650.52492493 57.69263916 651.142547 58.76296387 651.77888489 59.86572266 C655.90397007 67.00579327 660.05681211 74.12929628 664.21980286 81.24731445 C669.64141781 90.5173696 674.98435143 99.83063095 680.30152893 109.1607666 C685.50275414 118.28514285 690.76258163 127.3736422 696.06575012 136.43920898 C702.21997027 146.9631607 708.30600282 157.52611583 714.39118958 168.09008789 C717.51910434 173.51891388 720.65088733 178.94550726 723.78230286 184.37231445 C725.03232165 186.53897028 726.28232164 188.70563695 727.53230286 190.87231445 C728.15105286 191.94481445 728.76980286 193.01731445 729.40730286 194.12231445 C840.03230286 385.87231446 840.03230286 385.87231446 841.907547 389.12280273 C843.15665804 391.28788516 844.40584415 393.45292428 845.65510559 395.61791992 C848.79432595 401.05847151 851.93220848 406.49978661 855.06745911 411.94262695 C861.08977614 422.39437645 867.12899623 432.83530993 873.21980286 443.24731445 C878.64151463 452.51731223 883.98435201 461.83063197 889.30152893 471.1607666 C894.50194316 480.28372017 899.76035063 489.37115974 905.06355286 498.43481445 C909.96029702 506.80702557 914.81762301 515.20154226 919.641922 523.61572266 C922.83166175 529.16959781 926.06334328 534.69153753 929.37605286 540.1730957 C930.35928528 541.81375 930.35928528 541.81375 931.36238098 543.48754883 C932.61464751 545.57296114 933.87847113 547.65148982 935.15534973 549.72192383 C935.71286926 550.65456055 936.27038879 551.58719727 936.84480286 552.5480957 C937.58923645 553.76879761 937.58923645 553.76879761 938.34870911 555.01416016 C939.52496728 557.98525787 939.26669518 559.35689392 938.28230286 562.37231445 C937.13752747 564.69873047 937.13752747 564.69873047 935.68464661 567.1262207 C935.13872864 568.04854492 934.59281067 568.97086914 934.03034973 569.92114258 C933.43286926 570.9156543 932.83538879 571.91016602 932.21980286 572.93481445 C930.93597252 575.10202649 929.65347329 577.27002748 928.37214661 579.4387207 C927.36450256 581.1405249 927.36450256 581.1405249 926.33650208 582.87670898 C923.26424383 588.08739453 920.27752452 593.34690501 917.28742981 598.60501099 C911.42085522 608.92014339 905.49076536 619.19626493 899.49885559 629.43920898 C893.34463544 639.9631607 887.2586029 650.52611583 881.17341614 661.09008789 C878.04550137 666.51891388 874.91371838 671.94550726 871.78230286 677.37231445 C870.53228407 679.53897028 869.28228407 681.70563695 868.03230286 683.87231445 C819.28230286 768.37231445 819.28230286 768.37231445 770.53230286 852.87231445 C769.91347229 853.94497559 769.29464172 855.01763672 768.65705872 856.12280273 C767.40794768 858.28788516 766.15876156 860.45292428 764.90950012 862.61791992 C761.77027976 868.05847151 758.63239723 873.49978661 755.49714661 878.94262695 C749.47482957 889.39437645 743.43560948 899.83530993 737.34480286 910.24731445 C732.26955162 918.92493687 727.25971519 927.63837013 722.28230286 936.37231445 C716.74228556 946.09347062 711.14855477 955.78126103 705.49885559 965.43920898 C699.34463544 975.9631607 693.2586029 986.52611583 687.17341614 997.09008789 C684.04550137 1002.51891388 680.91371838 1007.94550726 677.78230286 1013.37231445 C676.53228407 1015.53897028 675.28228407 1017.70563695 674.03230286 1019.87231445 C666.53230286 1032.87231445 659.03230286 1045.87231445 651.53230286 1058.87231445 C650.91282776 1059.94610352 650.29335266 1061.01989258 649.65510559 1062.1262207 C648.41254266 1064.27993165 647.16986797 1066.43357812 645.92707825 1068.5871582 C643.02915663 1073.60915707 640.13226937 1078.63174252 637.23954773 1083.65673828 C636.22283087 1085.42276967 635.20574627 1087.18858877 634.18855286 1088.9543457 C632.91829413 1091.159656 631.64871267 1093.36535662 630.37995911 1095.5715332 C619.90743267 1113.74718464 619.90743267 1113.74718464 618.28230286 1115.37231445 C616.86717065 1115.46931429 615.44721021 1115.49678832 614.02875751 1115.49651295 C612.64070556 1115.49988389 612.64070556 1115.49988389 611.22461215 1115.50332293 C610.1940407 1115.50069592 609.16346925 1115.4980689 608.10166836 1115.49536228 C607.01320186 1115.49651613 605.92473536 1115.49766997 604.80328503 1115.49885878 C601.10661447 1115.50153408 597.40998629 1115.49699582 593.71331787 1115.49256897 C591.05608224 1115.49300449 588.39884946 1115.49383664 585.7416144 1115.49515814 C579.93884982 1115.49723772 574.13609546 1115.49557817 568.33333206 1115.49151993 C559.70474158 1115.48550209 551.07615759 1115.48518252 542.44756539 1115.48606192 C527.93517447 1115.48737802 513.42278808 1115.48402607 498.91039848 1115.47804451 C484.5343365 1115.47213428 470.1582764 1115.46827994 455.78221321 1115.4671917 C454.44310533 1115.46708859 454.44310533 1115.46708859 453.07694477 1115.46698339 C448.5434648 1115.46664508 444.00998484 1115.46634369 439.47650487 1115.46605652 C407.33779497 1115.46395423 375.19908754 1115.45721164 343.06037903 1115.44775391 C311.83153802 1115.43857451 280.60269768 1115.43148843 249.37385559 1115.42724609 C248.41181511 1115.42711457 247.44977463 1115.42698304 246.45858141 1115.42684753 C236.79767148 1115.42552905 227.13676155 1115.42425323 217.47585161 1115.42300867 C197.7941936 1115.42047223 178.11253563 1115.41765098 158.43087769 1115.41465759 C157.07338132 1115.41445166 157.07338132 1115.41445166 155.68846079 1115.41424156 C95.21974045 1115.40503568 34.75102148 1115.38918988 -25.71769714 1115.37231445 C-179.46769714 848.87231446 -179.46769714 848.87231446 -181.34294128 845.62182617 C-182.59205232 843.45674375 -183.84123844 841.29170463 -185.09049988 839.12670898 C-188.22972024 833.68615739 -191.36760277 828.2448423 -194.50285339 822.80200195 C-200.52517043 812.35025246 -206.56439052 801.90931897 -212.65519714 791.49731445 C-218.07690892 782.22731668 -223.4197463 772.91399693 -228.73692322 763.5838623 C-233.93814843 754.45948605 -239.19797592 745.37098671 -244.50114441 736.30541992 C-250.65536456 725.78146821 -256.7413971 715.21851308 -262.82658386 704.65454102 C-265.95449863 699.22571503 -269.08628162 693.79912164 -272.21769714 688.37231445 C-273.46771593 686.20565863 -274.71771593 684.03899196 -275.96769714 681.87231445 C-276.58644714 680.79981445 -277.20519714 679.72731445 -277.84269714 678.62231445 C-313.46769714 616.87231446 -313.46769714 616.87231446 -315.34489441 613.6184082 C-316.58745734 611.46469726 -317.83013203 609.31105079 -319.07292175 607.1574707 C-321.97084337 602.13547183 -324.86773063 597.11288638 -327.76045227 592.08789062 C-328.77716913 590.32185924 -329.79425373 588.55604014 -330.81144714 586.7902832 C-332.08170587 584.58497291 -333.35128733 582.37927229 -334.62004089 580.1730957 C-335.20011902 579.16633789 -335.78019714 578.15958008 -336.37785339 577.12231445 C-336.9323114 576.15680664 -337.48676941 575.19129883 -338.05802917 574.1965332 C-339.16909507 572.30585796 -340.31125425 570.43313142 -341.48283386 568.5793457 C-342.30872009 567.27030273 -342.30872009 567.27030273 -343.15129089 565.93481445 C-343.89270325 564.79206055 -343.89270325 564.79206055 -344.64909363 563.6262207 C-345.91083694 560.96494261 -346.03573923 559.28672044 -345.71769714 556.37231445 C-344.45088502 553.85955535 -343.14370838 551.55985496 -341.65519714 549.18481445 C-340.72913879 547.65973058 -339.80476842 546.13362091 -338.88175964 544.60668945 C-338.37419128 543.77202148 -337.86662292 542.93735352 -337.34367371 542.07739258 C-334.33460998 537.07132259 -331.43978351 531.99911851 -328.53019714 526.93481445 C-327.23479877 524.68601598 -325.9392235 522.43731941 -324.64347839 520.1887207 C-323.66822205 518.49513428 -323.66822205 518.49513428 -322.67326355 516.76733398 C-319.52437661 511.30061466 -316.37086451 505.83656558 -313.21769714 500.37231445 C-311.96767364 498.20566134 -310.71767368 496.03899466 -309.46769714 493.87231445 C-296.96769714 472.20564779 -284.46769714 450.53898112 -271.96769714 428.87231445 C-271.34886658 427.79965332 -270.73003601 426.72699219 -270.092453 425.62182617 C-268.84334196 423.45674375 -267.59415585 421.29170463 -266.34489441 419.12670898 C-263.20567405 413.68615739 -260.06779152 408.2448423 -256.93254089 402.80200195 C-250.91022386 392.35025246 -244.87100377 381.90931897 -238.78019714 371.49731445 C-233.70494591 362.81969204 -228.69510948 354.10625878 -223.71769714 345.37231445 C-218.17767985 335.65115829 -212.58394906 325.96336787 -206.93424988 316.30541992 C-200.78002973 305.78146821 -194.69399718 295.21851308 -188.60881042 284.65454102 C-185.48089566 279.22571503 -182.34911267 273.79912164 -179.21769714 268.37231445 C-177.96767835 266.20565863 -176.71767836 264.03899196 -175.46769714 261.87231445 C-137.96769714 196.87231445 -100.46769714 131.87231445 -62.96769714 66.87231445 C-62.03908875 65.26271851 -62.03908875 65.26271851 -61.09172058 63.62060547 C-59.84499459 61.45962457 -58.59824987 59.29865447 -57.35148621 57.13769531 C-54.17623831 51.63412594 -51.00134219 46.13035413 -47.82707214 40.6262207 C-47.1806073 39.50538086 -46.53414246 38.38454102 -45.86808777 37.22973633 C-44.663535 35.14126715 -43.45909419 33.05273339 -42.25480652 30.96411133 C-41.12155778 28.9993818 -39.9644314 27.04822047 -38.78319198 25.11196423 C-37.18145496 22.37064519 -35.99215643 19.60933291 -34.8417446 16.65211201 C-27.54002297 -0.58956498 -17.30727193 -0.33742506 0 0 Z " fill="#1C235A" transform="translate(345.7176971435547,-2.372314453125)"/>
<path d="M0 0 C1.95703125 1.6015625 1.95703125 1.6015625 3.8125 3.625 C6.98521214 7.04801139 10.36003818 10.09308721 13.88354492 13.14404297 C17.25046584 16.0965557 20.49630959 19.17390837 23.75 22.25 C29.47743136 27.64228386 35.23621622 32.99425196 41.046875 38.296875 C43.19178841 40.25552728 45.32503967 42.22620222 47.453125 44.203125 C48.03425049 44.74235596 48.61537598 45.28158691 49.21411133 45.8371582 C50.32720448 46.87077849 51.43910768 47.90568236 52.54956055 48.94213867 C54.92669021 51.14745488 57.31080284 53.23995498 59.87890625 55.22265625 C60.57886719 55.80917969 61.27882813 56.39570313 62 57 C62 57.66 62 58.32 62 59 C62.66 59 63.32 59 64 59 C63.95101563 57.741875 63.90203125 56.48375 63.8515625 55.1875 C63.85424776 47.5720888 64.99006872 40.07731228 66.02636719 32.54736328 C66.37779693 29.97956364 66.71285277 27.40995923 67.046875 24.83984375 C67.26725273 23.2055972 67.4885723 21.57147731 67.7109375 19.9375 C67.80998383 19.16986328 67.90903015 18.40222656 68.01107788 17.61132812 C68.77049884 12.22950116 68.77049884 12.22950116 71 10 C72.70901726 13.27047639 74.41716396 16.54140664 76.125 19.8125 C76.65689941 20.83118164 77.18879883 21.84986328 77.73681641 22.89941406 C80.73499034 28.6455521 83.72541662 34.39558104 86.703125 40.15234375 C87.01003265 40.74541824 87.31694031 41.33849274 87.63314819 41.94953918 C89.12428521 44.83122825 90.61419214 47.71354043 92.10205078 50.59692383 C92.6536084 51.66322021 93.20516602 52.7295166 93.7734375 53.828125 C94.56959473 55.37983398 94.56959473 55.37983398 95.38183594 56.96289062 C96.46227138 58.99074472 97.59671581 60.99071173 98.78222656 62.95898438 C99.62092285 64.36374023 99.62092285 64.36374023 100.4765625 65.796875 C100.98525879 66.60995117 101.49395508 67.42302734 102.01806641 68.26074219 C104.28736712 74.59131255 101.337251 81.70068106 99.25952148 87.80493164 C98.83966728 89.06799889 98.83966728 89.06799889 98.41133118 90.35658264 C97.48842898 93.12689703 96.55489188 95.89349751 95.62109375 98.66015625 C94.9684646 100.61123916 94.31646264 102.56253197 93.66505432 104.51402283 C91.94702693 109.65470969 90.21977732 114.79225318 88.49078369 119.92926025 C87.10238934 124.05936536 85.72051324 128.19163584 84.33904076 132.32406044 C82.66449416 137.33268621 80.98692408 142.34029727 79.30859375 147.34765625 C78.82035189 148.80470411 78.82035189 148.80470411 78.32224655 150.29118729 C75.35695115 159.13303765 72.39128328 167.97210804 69.25048828 176.75341797 C68.86594986 177.83062607 68.48141144 178.90783417 68.08522034 180.01768494 C67.42011982 181.86459361 66.7455961 183.70815868 66.05821228 185.54689026 C64.38400717 190.17688532 63.4939263 193.99714467 64 199 C65.54367067 201.31998475 66.92415398 203.07541488 68.8125 205.0625 C69.83439482 206.20100794 70.85385575 207.34170435 71.87109375 208.484375 C72.39429199 209.06509766 72.91749023 209.64582031 73.45654297 210.24414062 C75.88460066 213.00633469 78.12800061 215.90260066 80.375 218.8125 C84.35355688 223.92799197 88.40112469 228.98041527 92.5 234 C97.00777649 239.52325006 101.44842939 245.09184817 105.8359375 250.7109375 C109.33776247 255.18436708 112.90811164 259.59867202 116.5 264 C121.00759973 269.52339685 125.44842642 275.09184436 129.8359375 280.7109375 C133.33776455 285.18436975 136.90822679 289.59857554 140.5 294 C146.88153998 301.82344133 153.12199109 309.75072065 159.33398438 317.70898438 C165.19893605 325.21783492 171.13955026 332.65662528 177.16357422 340.03857422 C181.11230493 344.88532838 184.9885508 349.7835826 188.8359375 354.7109375 C192.33776247 359.18436708 195.90811164 363.59867202 199.5 368 C204.00759973 373.52339685 208.44842642 379.09184436 212.8359375 384.7109375 C216.33776247 389.18436708 219.90811164 393.59867202 223.5 398 C228.00759973 403.52339685 232.44842642 409.09184436 236.8359375 414.7109375 C240.33776247 419.18436708 243.90811164 423.59867202 247.5 428 C252.00759973 433.52339685 256.44842642 439.09184436 260.8359375 444.7109375 C264.33776247 449.18436708 267.90811164 453.59867202 271.5 458 C276.00628636 463.52178751 280.44726558 469.08752959 284.83154297 474.70654297 C288.36974102 479.2289265 291.98925633 483.68084485 295.625 488.125 C311 506.95102026 311 506.95102026 311 509 C286.88707353 509.25703667 262.77435253 509.45097404 238.66033173 509.56993389 C227.46351815 509.6266392 216.26755606 509.70393706 205.07128906 509.82983398 C195.31179946 509.93952263 185.5529265 510.01045142 175.79283762 510.03497344 C170.62520918 510.04930721 165.4593447 510.08295248 160.2922821 510.16303062 C155.4260429 510.23783396 150.56228948 510.26070267 145.69552994 510.24418449 C143.91203917 510.24720494 142.12846331 510.26901331 140.34547043 510.31126022 C126.8792107 510.6146197 126.8792107 510.6146197 122.21078777 506.60350609 C120.15719929 503.81788488 118.55377148 501.08590129 117 498 C116.12621628 496.69262973 115.23595051 495.39572929 114.3137207 494.12207031 C113.51577106 492.94208488 112.71980948 491.76075276 111.92578125 490.578125 C111.48391983 489.92364883 111.04205841 489.26917267 110.58680725 488.59486389 C109.16025491 486.48110572 107.73639225 484.36555077 106.3125 482.25 C105.29725877 480.7448867 104.28179231 479.23992532 103.26611328 477.73510742 C101.18695489 474.65444808 99.10859584 471.57325188 97.03076172 468.49169922 C92.91757136 462.39354046 88.79169115 456.30399455 84.66464233 450.21520996 C82.93523985 447.66368754 81.20634535 445.11182109 79.47743225 442.55996704 C78.18259913 440.64882873 76.88769284 438.73774001 75.59277344 436.82666016 C71.66621147 431.03160267 67.74039584 425.2360396 63.81451416 419.44052124 C61.62637242 416.21032741 59.43818387 412.98016529 57.25 409.75 C56.37499978 408.45833349 55.49999978 407.16666682 54.625 405.875 C54.191875 405.235625 53.75875 404.59625 53.3125 403.9375 C38.875 382.625 24.4375 361.3125 10 340 C6.83466126 343.78345608 4.84494767 348.07547468 2.68359375 352.47265625 C2.26763443 353.30977646 1.85167511 354.14689667 1.42311096 355.00938416 C0.09074744 357.69187854 -1.23627711 360.37696507 -2.5625 363.0625 C-4.29005575 366.55483632 -6.02035806 370.04579052 -7.75390625 373.53515625 C-8.18587311 374.40467926 -8.61783997 375.27420227 -9.06289673 376.17007446 C-12.43836106 382.93646352 -15.93552364 389.63301422 -19.47645569 396.3139801 C-23.09800563 403.15484576 -26.56916404 410.06127621 -30 417 C-34.28289406 425.62543519 -38.64302543 434.20007772 -43.171875 442.69921875 C-47.22186465 450.33897196 -51.05868433 458.08415134 -54.90795898 465.82617188 C-59.07411666 474.20130952 -63.32439254 482.52159603 -67.71240234 490.7824707 C-70.91099778 496.80570316 -73.99394962 502.8779218 -77 509 C-77.66 509 -78.32 509 -79 509 C-79.3810791 508.30777344 -79.7621582 507.61554688 -80.15478516 506.90234375 C-87.55117222 493.48409987 -95.03211875 480.13326746 -102.79736328 466.92382812 C-106.95669651 459.83227599 -111.00256043 452.68391745 -115 445.5 C-119.575664 437.2779741 -124.23570748 429.1141857 -129 421 C-134.37196793 411.85086711 -139.59076525 402.62596869 -144.75 393.35546875 C-148.74964599 386.18646043 -152.84358252 379.07913415 -157 372 C-161.80091262 363.82099069 -166.50503671 355.5951025 -171.125 347.3125 C-175.41027747 339.63008855 -179.70521234 331.95435673 -184.0625 324.3125 C-184.53719727 323.47638184 -185.01189453 322.64026367 -185.50097656 321.77880859 C-188.16139822 317.11903432 -190.8951382 312.51545506 -193.70703125 307.9453125 C-194.31861084 306.94201904 -194.93019043 305.93872559 -195.56030273 304.9050293 C-196.74783372 302.96308942 -197.94870607 301.02922991 -199.16430664 299.10473633 C-199.96082642 297.7979895 -199.96082642 297.7979895 -200.7734375 296.46484375 C-201.25216309 295.697771 -201.73088867 294.93069824 -202.22412109 294.14038086 C-203 292 -203 292 -202.27050781 289.85302734 C-200.58933262 287.4010443 -198.61564135 285.64025709 -196.375 283.6875 C-195.47523438 282.89730469 -194.57546875 282.10710937 -193.6484375 281.29296875 C-192.77445312 280.53628906 -191.90046875 279.77960938 -191 279 C-189.66635729 277.833687 -188.33299624 276.66705181 -187 275.5 C-186.0409375 274.6646875 -186.0409375 274.6646875 -185.0625 273.8125 C-182.69035571 271.72788836 -180.34443935 269.61571356 -178 267.5 C-174.38323655 264.23609152 -170.73610392 261.01209051 -167.0625 257.8125 C-164.69035571 255.72788836 -162.34443935 253.61571356 -160 251.5 C-156.38323655 248.23609152 -152.73610392 245.01209051 -149.0625 241.8125 C-146.69035571 239.72788836 -144.34443935 237.61571356 -142 235.5 C-139.01937279 232.81016569 -136.02754767 230.13689636 -133 227.5 C-128.28298716 223.38918961 -123.64361111 219.19332155 -119 215 C-113.72014424 210.23213025 -108.42708194 205.48487782 -103.0625 200.8125 C-100.69035571 198.72788836 -98.34443935 196.61571356 -96 194.5 C-92.38323655 191.23609152 -88.73610392 188.01209051 -85.0625 184.8125 C-82.69035571 182.72788836 -80.34443935 180.61571356 -78 178.5 C-74.38248603 175.23541422 -70.73616951 172.00910509 -67.05859375 168.8125 C-64.70047469 166.73628132 -62.3837256 164.61735832 -60.0625 162.5 C-55.54957645 158.42087685 -50.84919022 154.66795167 -46 151 C-53.90974251 154.09693026 -61.71104754 157.42509219 -69.5 160.8125 C-70.13884125 161.08978943 -70.7776825 161.36707886 -71.43588257 161.652771 C-86.35108435 168.12692304 -101.22313629 174.69879734 -116.09423828 181.2734375 C-131.34457347 188.01552413 -146.61378003 194.71142189 -161.91830444 201.32952881 C-170.64722755 205.10441683 -179.36212643 208.90966176 -188.0625 212.75 C-199.00735077 217.58090942 -209.99201655 222.31489271 -221 227 C-222.4041621 222.53527869 -221.06803212 219.23798158 -219.60546875 214.94921875 C-219.34302872 214.15234146 -219.08058868 213.35546417 -218.81019592 212.53443909 C-217.94544184 209.91554501 -217.06639197 207.30167969 -216.1875 204.6875 C-215.5786443 202.85095299 -214.97090807 201.0140345 -214.36425781 199.17675781 C-213.14395752 195.48347144 -211.91918143 191.79171956 -210.69091797 188.10107422 C-208.49740026 181.49884993 -206.37129981 174.87576544 -204.25 168.25 C-201.13217947 158.55327994 -197.98017683 148.8680408 -194.8125 139.1875 C-194.43905457 138.04617615 -194.06560913 136.90485229 -193.68084717 135.72894287 C-191.81012421 130.01306143 -189.93779141 124.29771239 -188.06347656 118.58300781 C-187.71246384 117.51066895 -187.36145111 116.43833008 -186.99980164 115.33349609 C-186.30758866 113.22191098 -185.61265548 111.11121545 -184.91487122 109.00146484 C-183.31370477 104.13808559 -181.77021903 99.27393985 -180.37670898 94.34667969 C-180.12286438 93.47170837 -179.86901978 92.59673706 -179.60748291 91.69525146 C-179.1442871 90.0836564 -178.69980017 88.4665015 -178.2789917 86.84332275 C-177.17171307 83.03452969 -176.1999746 80.74982548 -172.8671875 78.46899414 C-170.33839222 77.15359465 -167.98515938 75.98223363 -165.30078125 75.05859375 C-159.0756169 72.73533253 -153.1944723 69.74056205 -147.24755859 66.79702759 C-135.09261172 60.8062744 -122.80742042 55.09492662 -110.50244141 49.42089844 C-104.06435442 46.44550554 -97.68618508 43.39357482 -91.37133789 40.16625977 C-83.10787777 35.98202377 -74.66814636 32.15277244 -66.25830078 28.27368164 C-59.16746732 24.99513116 -52.14744689 21.60322642 -45.16899109 18.09181213 C-37.99669402 14.48578248 -30.78639339 10.96295619 -23.54125977 7.50561523 C-22.03311465 6.78284879 -20.52763828 6.0544915 -19.0246582 5.32104492 C-16.8102603 4.24122665 -14.58802214 3.17940494 -12.36328125 2.12109375 C-11.36171745 1.62602577 -11.36171745 1.62602577 -10.33992004 1.12095642 C-6.50960916 -0.67383167 -4.04313615 -1.48695737 0 0 Z " fill="#FEFEFE" transform="translate(518,361)"/>
<path d="M0 0 C1.51635859 0.00610243 1.51635859 0.00610243 3.06335068 0.01232815 C4.20694927 0.01458369 5.35054787 0.01683924 6.52880096 0.01916313 C8.41058233 0.03069719 8.41058233 0.03069719 10.33037949 0.04246426 C11.63323017 0.04668675 12.93608086 0.05090925 14.27841187 0.0552597 C17.74054041 0.06686997 21.2026046 0.08486723 24.66469383 0.10486364 C27.89239629 0.1230414 31.12011711 0.13726517 34.34783554 0.15229702 C42.2167583 0.19209155 50.08557754 0.24471008 57.95440292 0.30003262 C59.37499869 0.3099209 60.7955945 0.31980408 62.21619034 0.32968235 C68.11070391 0.37082696 74.00521321 0.41250894 79.89971161 0.45577812 C88.26565131 0.51717783 96.6315995 0.57508907 104.99759459 0.62843078 C110.94212139 0.66660274 116.88661437 0.70853074 122.83109498 0.75331742 C126.3624595 0.77982759 129.89381748 0.80468908 133.42522049 0.82551289 C137.32789911 0.84862312 141.23049447 0.8794887 145.13311386 0.9111166 C146.29955429 0.91687206 147.46599472 0.92262753 148.66778183 0.9285574 C150.24773941 0.94324062 150.24773941 0.94324062 151.85961533 0.95822048 C152.7796925 0.96467303 153.69976967 0.97112558 154.64772797 0.97777367 C156.72002792 1.11643887 156.72002792 1.11643887 157.72002792 2.11643887 C157.80688395 3.67816631 157.82705012 5.24373231 157.81768417 6.80784512 C157.81518661 7.6580624 157.81268906 8.50827969 157.81011581 9.38426113 C157.79645981 11.01512661 157.79645981 11.01512661 157.78252792 12.67893887 C157.77103955 14.54083459 157.75991331 16.40273257 157.74908066 18.26463223 C157.73939641 19.88190111 157.72971217 21.49916999 157.72002792 23.11643887 C143.10904007 25.84943804 128.47637593 28.3125772 113.78252792 30.55393887 C109.81874927 31.16308113 105.85530769 31.77440037 101.89190292 32.38597012 C100.92456726 32.53499783 99.9572316 32.68402554 98.96058273 32.83756924 C93.34044067 33.70518221 87.72357486 34.590022 82.11065292 35.50315762 C80.83303085 35.70989101 79.55540878 35.91662441 78.23907089 36.12962246 C75.78534572 36.53464388 73.33374342 36.95276254 70.8845787 37.38450527 C64.93807848 38.4076191 59.08124196 39.21105912 53.06064987 39.55758572 C37.16572083 39.95628792 37.16572083 39.95628792 23.12969589 46.23557949 C18.59530322 51.74471379 15.92690185 58.06255725 13.24248886 64.6208334 C10.84979285 70.11451869 7.80072434 75.20119158 4.75756454 80.35050869 C3.03200366 83.28748458 1.3560695 86.25255488 -0.32684708 89.21409512 C-4.58975855 96.68343539 -8.92791715 104.10827552 -13.27215958 111.53050137 C-16.9799266 117.87095228 -20.64624705 124.23329175 -24.27997208 130.61643887 C-28.48253845 137.9988355 -32.73893994 145.34762387 -37.02997208 152.67893887 C-42.16860514 161.46029182 -47.24310758 170.27649341 -52.27997208 179.11643887 C-57.88606492 188.95540814 -63.55190745 198.75733517 -69.27215958 208.53050137 C-73.47722589 215.72135677 -77.62088602 222.94527549 -81.74188614 230.1845541 C-86.12947595 237.88025887 -90.59637732 245.52854652 -95.06903458 253.17503262 C-99.3408486 260.48604473 -103.55478916 267.82815652 -107.74310684 275.18723965 C-111.52175638 281.81594574 -115.36182776 288.4072744 -119.21747208 294.99143887 C-124.45243705 303.93342242 -129.58424977 312.9284391 -134.66424942 321.9592123 C-138.22347223 328.27631562 -141.85557596 334.54404838 -145.55145645 340.78196621 C-148.76610126 346.21667672 -151.90647873 351.69140377 -155.02997208 357.17893887 C-159.33953466 364.7470698 -163.6966249 372.28560075 -168.09247208 379.80393887 C-178.08347114 396.89533726 -187.97108079 414.04569623 -197.77020645 431.24778652 C-202.3662391 439.30017254 -207.04385518 447.30455636 -211.73724747 455.3005209 C-212.58210709 456.74274014 -212.58210709 456.74274014 -213.44403458 458.21409512 C-213.94370743 459.06495693 -214.44338028 459.91581875 -214.95819473 460.79246426 C-217.48187367 464.83783276 -217.48187367 464.83783276 -218.16669083 469.37815762 C-216.93502858 473.18166084 -215.07447771 476.46764646 -213.09247208 479.92893887 C-212.65249893 480.70882168 -212.21252579 481.48870449 -211.75922012 482.29222012 C-206.91732047 490.83625811 -201.94624437 499.3065594 -196.98309708 507.78050137 C-193.24362618 514.16925878 -189.53872173 520.57759963 -185.84247208 526.99143887 C-185.22025772 528.07102871 -184.59804337 529.15061855 -183.95697403 530.26292324 C-182.69485691 532.45326406 -181.43289423 534.64369389 -180.17108536 536.8342123 C-177.04317059 542.26303829 -173.9113876 547.68963168 -170.77997208 553.11643887 C-169.52995329 555.28309469 -168.27995329 557.44976136 -167.02997208 559.61643887 C-166.41122208 560.68893887 -165.79247208 561.76143887 -165.15497208 562.86643887 C-54.52997208 754.61643886 -54.52997208 754.61643886 -52.65472794 757.86692715 C-51.4056169 760.03200957 -50.15643078 762.19704869 -48.90716934 764.36204433 C-45.76794898 769.80259592 -42.63006645 775.24391102 -39.49481583 780.68675137 C-33.47249879 791.13850086 -27.4332787 801.57943435 -21.34247208 811.99143887 C-15.92311873 821.25740421 -10.58201819 830.56635896 -5.26779556 839.89280605 C0.04860632 849.22098907 5.42264449 858.51408387 10.85284042 867.77659512 C15.19798077 875.19330019 19.45433231 882.65147154 23.72002792 890.11643887 C185.09002792 890.11643887 346.46002792 890.11643887 512.72002792 890.11643887 C518.00002792 880.87643887 523.28002792 871.63643887 528.72002792 862.11643887 C535.72002792 850.11643887 535.72002792 850.11643887 539.15752792 844.24143887 C543.05600459 837.558336 546.88961193 830.83865795 550.72002792 824.11643887 C556.25988725 814.39519381 561.85377724 804.70749018 567.50347519 795.04954433 C573.65769534 784.52559262 579.74372788 773.96263749 585.82891464 763.39866543 C588.95682941 757.96983944 592.0886124 752.54324605 595.22002792 747.11643887 C596.47004671 744.94978304 597.72004671 742.78311637 598.97002792 740.61643887 C636.47002792 675.61643887 673.97002792 610.61643887 711.47002792 545.61643887 C712.08885849 544.54377773 712.70768906 543.4711166 713.34527206 542.36595058 C714.5943831 540.20086816 715.84356922 538.03582904 717.09283066 535.8708334 C720.23205102 530.43028181 723.36993355 524.98896671 726.50518417 519.54612637 C727.76422641 517.36118884 729.02334063 515.1762928 730.28252792 512.99143887 C730.89587997 511.92683437 731.50923203 510.86222988 732.1411705 509.76536465 C735.28800309 504.30952758 738.44911084 498.86260608 741.63409042 493.42893887 C742.5843309 491.80689541 742.5843309 491.80689541 743.55376816 490.1520834 C744.75146455 488.11002131 745.95134514 486.069238 747.15386581 484.03001308 C748.21672956 482.21813017 749.26615762 480.39827126 750.29937363 478.56931973 C751.72002792 476.11643887 751.72002792 476.11643887 753.1777916 474.00926113 C754.47826883 471.97607784 755.29381681 470.49488782 755.72002792 468.11643887 C754.68320721 464.43574504 752.73882348 461.4853988 750.65752792 458.30393887 C749.50757999 456.42906664 748.35784455 454.55406407 747.20830917 452.67893887 C746.32393173 451.2751498 746.32393173 451.2751498 745.42168808 449.84300137 C742.95495552 445.89056675 740.65367641 441.84992992 738.34502792 437.80393887 C734.77343338 431.62824666 731.17446444 425.46854417 727.57500839 419.30906582 C722.08704725 409.91704297 716.64085025 400.50392718 711.25933456 391.0505209 C707.45640804 384.38015383 703.59676664 377.74413846 699.72002792 371.11643887 C694.84831524 362.78772483 690.02955709 354.43144673 685.25689316 346.04563808 C681.47824362 339.416932 677.63817224 332.82560333 673.78252792 326.24143887 C668.54457755 317.29435586 663.41017866 308.29402404 658.32696152 299.25828457 C654.86602565 293.11599311 651.33557767 287.02183559 647.73858261 280.95847988 C643.6560613 274.05478995 639.6904643 267.08489905 635.72002792 260.11643887 C630.96802371 251.77706604 626.1886211 243.45735461 621.29717636 235.19871426 C618.13390075 229.84766024 615.04543091 224.45590322 611.97002792 219.05393887 C607.60098034 211.37982697 603.17900184 203.73864263 598.72002792 196.11643887 C593.84909259 187.78916124 589.03169419 179.43399164 584.25909042 171.05003262 C580.45618743 164.3798615 576.59667496 157.74398172 572.72002792 151.11643887 C567.84913933 142.7891337 563.03169448 134.43399215 558.25909042 126.05003262 C554.45618743 119.3798615 550.59667496 112.74398172 546.72002792 106.11643887 C542.34625535 98.63900672 538.00563222 91.14475732 533.72002792 83.61643887 C527.14308228 72.06472407 520.46491353 60.57092737 513.72002792 49.11643887 C513.30084091 48.218204 512.8816539 47.31996914 512.44976425 46.39451504 C510.86305722 43.85714104 510.86305722 43.85714104 507.79912949 43.15672207 C506.58193222 42.99518642 505.36473495 42.83365078 504.11065292 42.66722012 C503.4209642 42.56837017 502.73127548 42.46952023 502.0206871 42.36767483 C500.49078427 42.15088838 498.95940468 41.94434854 497.4269371 41.74650478 C494.01101147 41.30498193 490.60264897 40.81405342 487.19298935 40.32682705 C485.27598573 40.05337291 483.35861005 39.78251722 481.44091415 39.51396084 C472.96672278 38.32075138 464.51392787 37.0028387 456.06377792 35.65159512 C455.04335026 35.48850951 455.04335026 35.48850951 454.00230789 35.32212925 C449.84258653 34.65685314 445.68323866 33.98926296 441.52396774 33.32117748 C435.60562805 32.37104977 429.68649222 31.42593762 423.76690292 30.48362637 C422.51532394 30.28417919 421.26374496 30.08473202 419.97423935 29.87924099 C410.00061193 28.29884886 400.01488439 26.80809066 390.01855087 25.37837124 C388.96903244 25.2263525 387.91951401 25.07433376 386.83819199 24.9177084 C385.91846603 24.78639523 384.99874008 24.65508205 384.05114365 24.5197897 C381.72002792 24.11643887 381.72002792 24.11643887 378.72002792 23.11643887 C378.69114978 19.63728946 378.67327105 16.15817056 378.65752792 12.67893887 C378.64914902 11.68571621 378.64077011 10.69249355 378.6321373 9.66917324 C378.62891464 8.72493496 378.62569199 7.78069668 378.62237167 6.80784512 C378.61713486 5.93329678 378.61189804 5.05874844 378.60650253 4.15769863 C378.72002792 2.11643887 378.72002792 2.11643887 379.72002792 1.11643887 C381.33740681 1.00821411 382.95948468 0.96958833 384.58044052 0.95822048 C385.63374557 0.94843166 386.68705063 0.93864285 387.77227402 0.9285574 C388.93871445 0.92280193 390.10515488 0.91704647 391.30694199 0.9111166 C392.5284697 0.901217 393.74999741 0.89131741 395.00854111 0.88111782 C398.37808518 0.85482703 401.74760396 0.83298543 405.11718845 0.81311584 C408.66709816 0.79119229 412.21696583 0.76380493 415.76684189 0.73705959 C421.75935591 0.69268256 427.75188559 0.65196195 433.74444199 0.61375332 C442.08876054 0.56054036 450.43302036 0.50060957 458.77728319 0.43935764 C464.64116804 0.39658818 470.50506518 0.35554144 476.3689642 0.31476617 C477.76656089 0.30503797 479.16415726 0.29526233 480.56175327 0.28543639 C482.58767531 0.27121884 484.61359866 0.25720576 486.63952255 0.24325466 C487.94964184 0.23420133 489.25976112 0.22514799 490.60958099 0.21582031 C493.18131173 0.20035644 495.75306559 0.18830672 498.3248291 0.17990685 C504.17830799 0.16060466 510.02795685 0.1205902 515.87975049 -0.01906615 C517.910586 -0.06545092 519.9413331 -0.10148455 521.972435 -0.13394928 C524.50559249 -0.17672553 527.03852685 -0.23820449 529.57067871 -0.32141304 C537.94755836 -0.43060054 537.94755836 -0.43060054 541.87170029 2.3483572 C543.62786147 5.04179595 544.70769925 7.69326698 545.75762558 10.72337246 C547.82932634 15.87477043 550.94981836 20.54371684 553.78252792 25.30393887 C555.10036633 27.58676977 556.41410635 29.87197105 557.72393417 32.15940762 C561.54554498 38.81777143 565.38188803 45.46759341 569.22002792 52.11643887 C570.47008904 54.28307027 571.72008892 56.44973701 572.97002792 58.61643887 C573.89815292 60.22518887 573.89815292 60.22518887 574.84502792 61.86643887 C655.47002793 201.61643887 655.47002793 201.61643887 657.34527206 204.86692715 C658.5943831 207.03200957 659.84356922 209.19704869 661.09283066 211.36204433 C664.23205102 216.80259592 667.36993355 222.24391102 670.50518417 227.68675137 C676.52750121 238.13850086 682.5667213 248.57943435 688.65752792 258.99143887 C694.0792397 268.26143664 699.42207708 277.57475639 704.739254 286.90489101 C709.94047921 296.02926726 715.2003067 305.11776661 720.50347519 314.1833334 C726.65769534 324.70728511 732.74372788 335.27024024 738.82891464 345.8342123 C741.95682941 351.26303829 745.0886124 356.68963168 748.22002792 362.11643887 C749.47004671 364.28309469 750.72004671 366.44976136 751.97002792 368.61643887 C752.58877792 369.68893887 753.20752792 370.76143887 753.84502792 371.86643887 C760.72002792 383.78310553 767.59502792 395.6997722 774.47002792 407.61643887 C775.08934189 408.68990566 775.70865585 409.76337246 776.34673691 410.86936855 C777.5910779 413.0262479 778.83538156 415.18314878 780.07964706 417.34007168 C783.95310473 424.05453873 787.82759489 430.76840765 791.70440292 437.48094082 C792.98892847 439.7075053 794.2715363 441.93517742 795.55205917 444.16404629 C798.15548507 448.69385371 800.76351074 453.2160592 803.47393417 457.68284512 C804.05703354 458.65689297 804.05703354 458.65689297 804.65191269 459.65061855 C805.62253485 461.26662126 806.60797404 462.8737012 807.59502792 464.47972012 C808.96007021 467.67903798 808.63597807 468.81028335 807.72002792 472.11643887 C806.57183456 474.52561855 806.57183456 474.52561855 805.13018417 477.03831387 C804.3324559 478.43944424 804.3324559 478.43944424 803.51861191 479.86888027 C802.94570419 480.85807461 802.37279648 481.84726894 801.78252792 482.86643887 C800.89899643 484.41017178 800.89899643 484.41017178 799.99761581 485.98509121 C796.19651922 492.61034538 792.34414521 499.20535837 788.45171738 505.77732754 C785.23527906 511.21315335 782.09444489 516.68978109 778.97002792 522.17893887 C774.6604656 529.74706934 770.30341004 537.28562153 765.90752792 544.80393887 C759.10069115 556.44713803 752.35605758 568.12549304 745.6243248 579.81223965 C743.7049613 583.14258138 741.78320439 586.47153034 739.86065292 589.80003262 C734.10389633 599.76787202 728.35637117 609.74035957 722.65752792 619.74143887 C717.87245896 628.135762 713.01589601 636.48683533 708.13946152 644.82835293 C701.92443847 655.46472196 695.77312883 666.13749705 689.6243248 676.81223965 C687.7049613 680.14258138 685.78320439 683.47153034 683.86065292 686.80003262 C678.10389633 696.76787202 672.35637117 706.74035957 666.65752792 716.74143887 C661.87245896 725.135762 657.01589601 733.48683533 652.13946152 741.82835293 C645.92443847 752.46472196 639.77312883 763.13749705 633.6243248 773.81223965 C631.7049613 777.14258138 629.78320439 780.47153034 627.86065292 783.80003262 C622.10389633 793.76787202 616.35637117 803.74035957 610.65752792 813.74143887 C605.87457322 822.132053 601.01998351 830.47933189 596.14605331 838.8173666 C587.2308742 854.07592107 578.40827994 869.38803332 569.65752792 884.74143887 C563.63539437 895.30356939 557.5137129 905.8068233 551.36993027 916.29856777 C549.79358516 918.99081033 548.21959336 921.68441753 546.64580917 924.37815762 C545.73324729 925.93686761 544.82049966 927.49546889 543.90752792 929.05393887 C543.4929332 929.76389004 543.07833847 930.47384121 542.65118027 931.20530605 C539.83523489 936.0012319 539.83523489 936.0012319 538.72002792 937.11643887 C535.85964142 937.22280881 533.02309227 937.26296002 530.16194916 937.26183319 C528.79235012 937.26715912 528.79235012 937.26715912 527.39508241 937.27259263 C524.29503843 937.28337176 521.19502695 937.28691643 518.09496689 937.29052639 C515.86614914 937.29668353 513.63733251 937.3032591 511.40851712 937.31022018 C505.25218299 937.32808032 499.09585093 937.33948607 492.93950009 937.34977686 C486.99184892 937.3606226 481.04421009 937.3760976 475.09656854 937.39118289 C456.88253196 937.43689867 438.66847404 937.46733797 420.45440292 937.49534512 C419.70892661 937.4965001 418.9634503 937.49765509 418.1953838 937.49884508 C388.70003533 937.54453217 359.20467812 937.58418334 329.70930599 937.61087003 C322.39924046 937.61749386 315.08917517 937.62436724 307.77910995 937.63133144 C306.97133674 937.63209463 306.16356352 937.63285782 305.33131233 937.63364413 C279.133385 937.65859494 252.93561628 937.71208369 226.73777146 937.78134971 C199.81994432 937.85239002 172.90220252 937.89752106 145.98428055 937.9088508 C142.18483401 937.91045578 138.38538765 937.91234338 134.58594131 937.91439533 C133.46424012 937.91498466 133.46424012 937.91498466 132.3198783 937.91558589 C120.26925096 937.92265284 108.21884602 937.95689532 96.16830395 938.00105634 C84.06220031 938.04480152 71.95633996 938.05935865 59.85016456 938.04396308 C53.28745893 938.03641643 46.72530628 938.04288447 40.16269493 938.08354092 C34.16055382 938.12043154 28.15958733 938.12078116 22.15741494 938.09141731 C19.98036631 938.08732384 17.80324249 938.0969096 15.62632534 938.1211831 C12.67658816 938.15211394 9.7311165 938.13420766 6.78147125 938.10361481 C5.92694128 938.12434507 5.07241132 938.14507533 4.1919865 938.16643378 C1.7816869 938.11054939 -0.02871106 937.98567776 -2.27997208 937.11643887 C-4.5109209 934.69171758 -5.88154232 932.07968198 -7.27997208 929.11643887 C-7.82854874 928.19967373 -8.3771254 927.28290859 -8.94232559 926.33836269 C-9.42628799 925.50844814 -9.9102504 924.67853359 -10.40887833 923.82347012 C-11.23935684 922.40034512 -11.23935684 922.40034512 -12.0866127 920.94847012 C-12.6660463 919.9520248 -13.24547989 918.95557949 -13.84247208 917.92893887 C-14.45671036 916.87448574 -15.07094864 915.82003262 -15.7038002 914.73362637 C-20.08814711 907.19562642 -24.42494827 899.63147901 -28.73920059 892.05320644 C-32.5425037 885.38187989 -36.40271862 878.74501846 -40.27997208 872.11643887 C-45.15086067 863.7891337 -49.96830552 855.43399215 -54.74090958 847.05003262 C-58.54381257 840.3798615 -62.40332504 833.74398172 -66.27997208 827.11643887 C-71.15168476 818.78772483 -75.97044291 810.43144673 -80.74310684 802.04563808 C-84.52175638 795.416932 -88.36182776 788.82560333 -92.21747208 782.24143887 C-97.45542245 773.29435586 -102.58982134 764.29402404 -107.67303848 755.25828457 C-111.13397435 749.11599311 -114.66442233 743.02183559 -118.26141739 736.95847988 C-122.3439387 730.05478995 -126.3095357 723.08489905 -130.27997208 716.11643887 C-135.03197629 707.77706604 -139.8113789 699.45735461 -144.70282364 691.19871426 C-147.86609925 685.84766024 -150.95456909 680.45590322 -154.02997208 675.05393887 C-158.39901966 667.37982697 -162.82099816 659.73864263 -167.27997208 652.11643887 C-172.15090741 643.78916124 -176.96830581 635.43399164 -181.74090958 627.05003262 C-185.54381257 620.3798615 -189.40332504 613.74398172 -193.27997208 607.11643887 C-198.15086067 598.7891337 -202.96830552 590.43399215 -207.74090958 582.05003262 C-211.54381257 575.3798615 -215.40332504 568.74398172 -219.27997208 562.11643887 C-224.15168476 553.78772483 -228.97044291 545.43144673 -233.74310684 537.04563808 C-237.5217566 530.41693161 -241.36185605 523.82562022 -245.21747208 517.24143887 C-250.51337015 508.19455422 -255.72455153 499.10375959 -260.84662247 489.95725918 C-263.06783626 485.99593838 -265.29062516 482.0481334 -267.68231583 478.18675137 C-268.65878067 476.60507168 -268.65878067 476.60507168 -269.65497208 474.99143887 C-270.19895645 474.14323574 -270.74294083 473.29503262 -271.30340958 472.42112637 C-272.55840732 469.4593317 -272.12816416 468.19687756 -271.27997208 465.11643887 C-270.02753067 462.57469082 -270.02753067 462.57469082 -268.42840958 459.85472012 C-267.83221817 458.83184902 -267.23602676 457.80897793 -266.62176895 456.75511074 C-265.97272598 455.65747402 -265.32368301 454.5598373 -264.65497208 453.42893887 C-263.97518289 452.26726965 -263.2961596 451.10515194 -262.6178627 449.94261074 C-261.20838905 447.5282644 -259.7956422 445.11587965 -258.38055801 442.70481777 C-255.14941687 437.19325303 -251.96724212 431.65344506 -248.77997208 426.11643887 C-247.5302026 423.94963922 -246.28020183 421.78297296 -245.02997208 419.61643887 C-244.10184708 418.00768887 -244.10184708 418.00768887 -243.15497208 416.36643887 C-231.27997208 395.78310553 -219.40497208 375.1997722 -207.52997208 354.61643887 C-206.91114151 353.54377773 -206.29231094 352.4711166 -205.65472794 351.36595058 C-204.4056169 349.20086816 -203.15643078 347.03582904 -201.90716934 344.8708334 C-198.76794898 339.43028181 -195.63006645 333.98896671 -192.49481583 328.54612637 C-186.47249879 318.09437687 -180.4332787 307.65344339 -174.34247208 297.24143887 C-169.26722084 288.56381645 -164.25738441 279.85038319 -159.27997208 271.11643887 C-153.73995478 261.3952827 -148.14622399 251.70749229 -142.49652481 242.04954433 C-136.34230466 231.52559262 -130.25627212 220.96263749 -124.17108536 210.39866543 C-121.04317059 204.96983944 -117.9113876 199.54324605 -114.77997208 194.11643887 C-113.52995329 191.94978304 -112.27995329 189.78311637 -111.02997208 187.61643887 C-77.27997208 129.11643887 -77.27997208 129.11643887 -43.52997208 70.61643887 C-42.91114151 69.54377773 -42.29231094 68.4711166 -41.65472794 67.36595058 C-40.4056169 65.20086816 -39.15643078 63.03582904 -37.90716934 60.8708334 C-34.76794898 55.43028181 -31.63006645 49.98896671 -28.49481583 44.54612637 C-22.15177417 33.53696732 -15.79504464 22.53587261 -9.40497208 11.55393887 C-8.80354385 10.51801601 -8.20211563 9.48209316 -7.58246231 8.41477871 C-7.03146866 7.4694125 -6.48047501 6.52404629 -5.91278458 5.55003262 C-5.42696915 4.71528408 -4.94115372 3.88053555 -4.44061661 3.0204916 C-2.68295178 0.13701916 -2.68295178 0.13701916 0 0 Z " fill="#E6333D" transform="translate(371.279972076416,87.88356113433838)"/>
<path d="M0 0 C3.05743631 1.57206555 6.08524997 3.16318714 9.06640625 4.875 C9.77152344 5.27605957 10.47664062 5.67711914 11.203125 6.09033203 C18.25114363 10.12326241 25.20359154 14.31345786 32.15625 18.5078125 C37.25667286 21.5817241 42.36802968 24.63694019 47.49499512 27.66638184 C50.94361607 29.70561535 54.37540914 31.76637248 57.78271484 33.87402344 C64.18113474 37.80038632 70.26818227 41.30165067 77.3515625 43.8359375 C89.80889967 48.73073787 96.15263332 54.12390485 101.72506714 66.2194519 C107.40944566 79.44300817 111.98781037 93.05008395 116.57421875 106.68554688 C117.40411959 109.14481093 118.2348665 111.60378962 119.06640625 114.0625 C119.28276733 114.70627594 119.49912842 115.35005188 119.7220459 116.01333618 C121.25457591 120.558735 122.8645325 125.07014073 124.50390625 129.578125 C124.89779541 130.75856384 125.29168457 131.93900269 125.69750977 133.1552124 C127.9023845 139.06277031 129.57834423 142.44146275 135.43212891 145.15869141 C137.2970675 145.83096818 139.17499219 146.46877879 141.06640625 147.0625 C142.40315169 147.58387342 143.73738125 148.11178947 145.06787109 148.64892578 C146.99444012 149.35468353 148.92101989 150.06041204 150.84773254 150.76577759 C151.91733467 151.15773819 151.91733467 151.15773819 153.00854492 151.55761719 C153.73190033 151.82167358 154.45525574 152.08572998 155.20053101 152.35778809 C157.4970894 153.20811738 159.78078504 154.08742893 162.0637207 154.97363281 C169.50025891 157.83302492 176.70652873 160.33395021 184.5234375 161.9140625 C199.52123926 165.23956593 199.52123926 165.23956593 205.06640625 171.0625 C211.80019852 184.00622575 213.06640625 201.65415621 213.06640625 216.0625 C205.47640625 219.3625 197.88640625 222.6625 190.06640625 226.0625 C190.1334375 229.28128906 190.20046875 232.50007812 190.26953125 235.81640625 C190.29360981 238.98413972 190.29692596 242.15127629 190.29833984 245.3190918 C190.31023859 247.49640079 190.34323729 249.67371257 190.39892578 251.8503418 C190.70600668 264.45514368 190.52080842 273.78931017 181.71566772 283.38633728 C180.65256912 284.4813235 179.57731498 285.56468513 178.48828125 286.63388062 C176.65818314 288.47265943 175.13672749 290.46826107 173.62109375 292.5703125 C173.16347656 293.18519531 172.70585938 293.80007813 172.234375 294.43359375 C171.80769531 295.01238281 171.38101562 295.59117187 170.94140625 296.1875 C170.04396635 297.39917702 169.14548513 298.6100833 168.24609375 299.8203125 C167.77510254 300.48490479 167.30411133 301.14949707 166.81884766 301.83422852 C165.06640625 304.0625 165.06640625 304.0625 162.51318359 306.52319336 C152.35155719 317.21559701 153.71686013 329.33215635 153.94140625 343.375 C153.94335106 345.77278708 153.94078594 348.17058229 153.93359375 350.56835938 C153.92582145 356.4008507 153.97389202 362.23078202 154.06640625 368.0625 C149.87640908 366.49174274 147.13748163 364.64513732 143.75390625 361.6875 C138.24521883 356.95256398 132.51900559 352.57355531 126.67456055 348.26220703 C126.03301025 347.7876709 125.39145996 347.31313477 124.73046875 346.82421875 C124.1679541 346.41131592 123.60543945 345.99841309 123.02587891 345.57299805 C121.40827696 344.32603776 119.8681449 342.97927778 118.35302734 341.60961914 C114.83988849 338.67316998 111.07085813 337.14612792 106.81640625 335.546875 C106.04006836 335.24557678 105.26373047 334.94427856 104.46386719 334.6338501 C102.83219782 334.00331683 101.19835823 333.3783736 99.5625 332.75878906 C97.06888233 331.8134387 94.58300554 330.84966442 92.09765625 329.8828125 C90.50432727 329.26973801 88.91059035 328.65772247 87.31640625 328.046875 C86.57874023 327.76148865 85.84107422 327.47610229 85.08105469 327.18206787 C81.08404147 325.67618165 77.33249666 324.60079207 73.06640625 324.0625 C72.66437988 324.60028076 72.26235352 325.13806152 71.84814453 325.69213867 C64.62672108 335.34783082 57.3978313 344.9946717 50.01953125 354.53125 C49.05273438 355.78421875 49.05273438 355.78421875 48.06640625 357.0625 C47.463125 357.6709375 46.85984375 358.279375 46.23828125 358.90625 C43.22387158 364.4527638 47.11177386 375.11212319 48.21875 381.10546875 C48.4343306 382.28199509 48.64991119 383.45852142 48.87202454 384.67070007 C49.45819642 387.8657941 50.04650349 391.060485 50.63600159 394.25496674 C51.00595291 396.26109839 51.37501233 398.2673921 51.74377441 400.27374268 C55.217329 419.17126578 58.74576244 438.05806128 62.31640625 456.9375 C62.72824743 459.11799048 63.14003183 461.29849168 63.55175781 463.47900391 C65.27564474 472.6053724 67.00208765 481.73119142 68.74502563 490.85394287 C69.42914115 494.44407956 70.10647834 498.03546945 70.78186035 501.6272583 C71.0926692 503.27184463 71.40647591 504.91586767 71.72351074 506.55926514 C72.15149789 508.77902157 72.56920451 511.00047282 72.984375 513.22265625 C73.21922607 514.45636963 73.45407715 515.69008301 73.69604492 516.96118164 C74.03115217 519.76729062 74.01312391 521.43978669 73.06640625 524.0625 C65.56142028 510.93537773 58.22680483 497.73036652 51.08496094 484.40209961 C47.05578331 476.88630593 42.95838839 469.41401887 38.80078125 461.96875 C35.32451436 455.74197239 31.8844946 449.49515932 28.44140625 443.25 C28.10194977 442.63431152 27.76249329 442.01862305 27.41275024 441.38427734 C27.07134003 440.76504395 26.72992981 440.14581055 26.37817383 439.5078125 C25.68180418 438.24479123 24.98543374 436.9817704 24.2890625 435.71875 C23.94087967 435.08718994 23.59269684 434.45562988 23.23396301 433.80493164 C20.80484227 429.39952422 18.37197909 424.99619816 15.9375 420.59375 C9.0947579 408.21603711 2.29212201 395.81877775 -4.42919922 383.37451172 C-7.88143873 376.98835152 -11.3734642 370.62654135 -14.91113281 364.28735352 C-17.56453377 359.53148757 -20.20170567 354.76691003 -22.828125 349.99609375 C-23.17492813 349.36637161 -23.52173126 348.73664948 -23.87904358 348.08784485 C-25.27498201 345.55292279 -26.67090031 343.01799269 -28.06460571 340.48184204 C-28.71954118 339.29011545 -29.37500979 338.0986817 -30.03102112 336.907547 C-30.67676266 335.73477243 -31.32117442 334.56126464 -31.96421814 333.38700867 C-33.6691394 330.28896025 -35.41978531 327.22847391 -37.24121094 324.19726562 C-37.61688202 323.56487976 -37.9925531 322.9324939 -38.37960815 322.28094482 C-39.42980441 320.51993144 -40.4935678 318.76702963 -41.55810547 317.01464844 C-42.93359375 314.0625 -42.93359375 314.0625 -42.73199463 312.11071777 C-41.74402826 309.57618865 -40.47220561 308.24682668 -38.53466797 306.33886719 C-37.81656952 305.62422302 -37.09847107 304.90957886 -36.35861206 304.17327881 C-35.57640289 303.40969055 -34.79419373 302.64610229 -33.98828125 301.859375 C-33.18504425 301.06275452 -32.38180725 300.26613403 -31.55422974 299.44537354 C-28.97933439 296.89390476 -26.3945386 294.35276528 -23.80859375 291.8125 C-21.24575683 289.28488279 -18.68511267 286.75510161 -16.12722778 284.22247314 C-14.53549213 282.64752097 -12.94067254 281.07567726 -11.34225464 279.50750732 C-7.94480218 276.15503978 -4.63896995 272.78596808 -1.52978516 269.16308594 C2.83575099 264.09017883 7.59637919 259.42745919 12.34765625 254.71875 C13.33009003 253.74073581 14.31222113 252.76241749 15.29406738 251.78381348 C18.90359943 248.18751016 22.51861331 244.59673404 26.13348389 241.00579834 C29.20021375 237.95894421 32.26478539 234.90994874 35.3266449 231.85820007 C36.74631782 230.44491371 38.16907624 229.03472889 39.59191895 227.62463379 C44.05970528 223.17365983 48.37014077 218.6697566 52.4708252 213.87854004 C54.87723424 211.13964116 57.45741091 208.60786131 60.06640625 206.0625 C54.3403035 207.40918456 48.61526766 208.76029201 42.89111328 210.11523438 C40.94998349 210.57408777 39.00858382 211.03180121 37.06689453 211.48828125 C34.25087925 212.15053136 31.43571346 212.81621931 28.62109375 213.484375 C27.70422791 213.70186401 26.78736206 213.91935303 25.8427124 214.14343262 C19.49922693 215.66792578 13.2636984 217.3984815 7.04345703 219.37207031 C3.55051378 220.18214441 0.63944211 220.40986395 -2.93359375 220.0625 C-4.87060547 218.60058594 -4.87060547 218.60058594 -6.36328125 216.546875 C-6.92708496 215.79519043 -7.49088867 215.04350586 -8.07177734 214.26904297 C-8.64492676 213.45838379 -9.21807617 212.64772461 -9.80859375 211.8125 C-10.4113916 210.99797363 -11.01418945 210.18344727 -11.63525391 209.34423828 C-12.8481453 207.70212512 -14.05190235 206.05322302 -15.24609375 204.39746094 C-17.1680999 201.73801841 -19.13917892 199.11938931 -21.12158203 196.50488281 C-22.73987543 194.36801657 -24.33749291 192.21596938 -25.93359375 190.0625 C-30.15030479 193.80165581 -32.9433652 198.3816788 -35.99609375 203.0625 C-37.24880819 204.96302569 -38.50278191 206.86272175 -39.7578125 208.76171875 C-40.42989746 209.77927246 -41.10198242 210.79682617 -41.79443359 211.84521484 C-45.1925485 216.95596104 -48.64679746 222.02818776 -52.10089111 227.10119629 C-61.13143896 240.36474212 -70.06073037 253.6928895 -78.93359375 267.0625 C-82.32476753 265.93210874 -82.78999043 265.25856333 -84.796875 262.44140625 C-85.62143188 261.29973999 -85.62143188 261.29973999 -86.46264648 260.13500977 C-87.05118408 259.30670654 -87.63972168 258.47840332 -88.24609375 257.625 C-89.51227251 255.8735159 -90.78055458 254.12355067 -92.05078125 252.375 C-93.02096191 251.03888672 -93.02096191 251.03888672 -94.01074219 249.67578125 C-96.88810016 245.76526325 -99.87147078 241.94208009 -102.87109375 238.125 C-108.57828627 230.85074784 -114.17696699 223.50191597 -119.63769531 216.0402832 C-122.27010437 212.46887885 -124.84083559 209.02266854 -128.01953125 205.91796875 C-130.57285344 203.36081275 -132.41924681 201.34358504 -133.93359375 198.0625 C-133.8281816 193.32480939 -132.37108362 189.22405272 -130.828125 184.80175781 C-129.14357505 179.64328335 -127.87060419 174.36766393 -126.51351929 169.11547852 C-124.04404655 159.61569145 -121.42730273 150.16355797 -118.58398438 140.76879883 C-116.99482285 135.44847457 -115.73772088 130.0853734 -114.51147461 124.67382812 C-113.27502446 119.30520628 -111.80279369 114.03369339 -110.24609375 108.75 C-106.88422935 97.29125092 -104.03870022 85.70820106 -101.1809082 74.1159668 C-98.20818708 62.0656197 -95.12624126 50.0513146 -91.68359375 38.125 C-91.3484375 36.96097656 -91.01328125 35.79695313 -90.66796875 34.59765625 C-90.425625 33.76105469 -90.18328125 32.92445313 -89.93359375 32.0625 C-89.60359375 32.0625 -89.27359375 32.0625 -88.93359375 32.0625 C-85.96359375 53.3475 -85.96359375 53.3475 -82.93359375 75.0625 C-80.37609375 72.649375 -77.81859375 70.23625 -75.18359375 67.75 C-69.10274176 62.02108138 -62.9910947 56.33121506 -56.8203125 50.69921875 C-53.70258119 47.85149394 -50.59761223 44.99035289 -47.49609375 42.125 C-46.68543457 41.37621582 -46.68543457 41.37621582 -45.85839844 40.61230469 C-44.76377897 39.60113447 -43.66921532 38.58990383 -42.57470703 37.57861328 C-39.86181789 35.07235896 -37.14764516 32.56749554 -34.43359375 30.0625 C-33.35025418 29.06250676 -32.26692084 28.06250676 -31.18359375 27.0625 C-29.01692708 25.0625 -26.85026042 23.0625 -24.68359375 21.0625 C-23.8781311 20.31842896 -23.8781311 20.31842896 -23.05639648 19.55932617 C-21.98191063 18.56825159 -20.90591999 17.57880574 -19.82836914 16.59106445 C-16.96965572 13.9664941 -14.14895772 11.31162684 -11.3671875 8.60546875 C-10.48933594 7.76338867 -10.48933594 7.76338867 -9.59375 6.90429688 C-8.46805589 5.82327317 -7.35167013 4.7324493 -6.24609375 3.63085938 C-2.52139861 0.08149975 -2.52139861 0.08149975 0 0 Z " fill="#FEFEFE" transform="translate(775.93359375,343.9375)"/>
<path d="M0 0 C3.46060503 1.73030251 4.20566337 5.87880441 5.59765625 9.328125 C6.12277046 10.60649483 6.12277046 10.60649483 6.65849304 11.91069031 C7.4088173 13.73901792 8.15621688 15.56854796 8.90100098 17.3991394 C10.06335622 20.25210158 11.23651362 23.10038415 12.41308594 25.94750977 C15.54549723 33.53384521 18.67050837 41.120822 21.66796875 48.76171875 C26.14955225 60.02489877 31.92604863 69.14784079 39.30615234 78.7421875 C42.20326456 82.60389026 44.87035287 86.61908831 47.5625 90.625 C52.06453499 97.27539583 56.74335512 103.74655138 61.6081543 110.13525391 C65.66495344 115.48637479 69.49196602 120.97363382 73.25146484 126.53686523 C75.632758 130.05326203 78.08740062 133.43708832 80.75 136.75 C83 140 83 140 82.74107361 141.98704529 C81.51760043 145.31032663 79.91056851 148.44125368 78.31640625 151.59765625 C77.94531738 152.33973831 77.57422852 153.08182037 77.19189453 153.84638977 C75.98628579 156.25388759 74.77462638 158.65827796 73.5625 161.0625 C72.73090553 162.71884605 71.8994442 164.37525896 71.06811523 166.03173828 C66.97018523 174.183796 62.83809396 182.31436499 58.5625 190.375 C58.1922168 191.08479004 57.82193359 191.79458008 57.44042969 192.52587891 C55.35525181 196.51224837 53.17910184 200.42456404 50.921875 204.31640625 C43.96734522 216.61126366 43.96734522 216.61126366 43.875 230.3125 C46.19443486 244.81717695 35.9857007 258.21720965 29.09228516 270.31103516 C26.57229446 274.73235974 24.21295757 279.23039431 21.875 283.75 C21.12600649 285.16850065 20.37597223 286.58645216 19.625 288.00390625 C13.67241517 299.295035 7.85371191 310.65740672 2 322 C1.34 322 0.68 322 0 322 C-6.39575398 309.76070733 -12.77449351 297.51283674 -19.125 285.25 C-23.23176745 277.32370274 -27.348267 269.40284615 -31.5 261.5 C-31.90025391 260.73276611 -32.30050781 259.96553223 -32.71289062 259.17504883 C-34.89477994 255.01201509 -37.2118865 250.97245024 -39.625 246.9375 C-42.77013187 241.18766738 -42.97658567 235.92549143 -41.40234375 229.59765625 C-39.40100027 219.97638279 -44.76051753 213.07930842 -49.3359375 205.02490234 C-52.23438744 199.75615312 -54.86868834 194.35421681 -57.53009033 188.96316528 C-62.12163755 179.66955125 -66.77173756 170.41031073 -71.625 161.25 C-72.02307861 160.4957373 -72.42115723 159.74147461 -72.83129883 158.96435547 C-74.45185563 155.89915412 -76.08549554 152.84424198 -77.75390625 149.8046875 C-78.22699219 148.92039063 -78.70007813 148.03609375 -79.1875 147.125 C-79.76564453 146.07699219 -79.76564453 146.07699219 -80.35546875 145.0078125 C-81.25923382 142.19244736 -80.96324344 140.80740181 -80 138 C-78.45888879 135.6521908 -76.899618 133.46483623 -75.1875 131.25 C-74.17689841 129.90867115 -73.16783864 128.56617954 -72.16015625 127.22265625 C-71.63695801 126.5280127 -71.11375977 125.83336914 -70.57470703 125.11767578 C-68.0244047 121.68801339 -65.57592215 118.18852709 -63.125 114.6875 C-59.00485311 108.81961446 -54.83565011 102.99074975 -50.625 97.1875 C-45.89498597 90.65482586 -41.20591757 84.09454235 -36.5625 77.5 C-35.71196045 76.29960083 -35.71196045 76.29960083 -34.84423828 75.07495117 C-33.20212413 72.73402892 -31.59362702 70.37415874 -30 68 C-29.52280518 67.30334229 -29.04561035 66.60668457 -28.55395508 65.88891602 C-22.9594305 57.21051076 -19.43044154 47.46521917 -15.5625 37.9375 C-14.83082199 36.15138781 -14.09840449 34.36557835 -13.36523438 32.58007812 C-11.93082102 29.08358282 -10.50071269 25.58538172 -9.07470703 22.08544922 C-7.0493438 17.11611539 -5.00959405 12.15278992 -2.96484375 7.19140625 C-2.51353844 6.09625954 -2.51353844 6.09625954 -2.05311584 4.97898865 C-1.36896019 3.31923659 -0.6845167 1.65960319 0 0 Z " fill="#FEFEFE" transform="translate(636,81)"/>
<path d="M0 0 C-2.23759237 12.24787404 -5.41934481 24.23750238 -9.00317383 36.15063477 C-10.81467072 42.23076678 -12.42053796 48.35596822 -14 54.5 C-15.88546753 61.82163034 -17.84638486 69.10271229 -20.03076172 76.34082031 C-21.33735289 80.68780862 -22.56946714 85.04980544 -23.76171875 89.4296875 C-24.22396851 91.11892334 -24.22396851 91.11892334 -24.69555664 92.84228516 C-25.3037237 95.07207128 -25.90601419 97.30347062 -26.50170898 99.53662109 C-26.78216064 100.56094238 -27.0626123 101.58526367 -27.3515625 102.640625 C-27.59729004 103.55360352 -27.84301758 104.46658203 -28.09619141 105.40722656 C-29.6547881 109.87840347 -31.90352443 113.19112197 -35.37109375 116.3828125 C-36.02166748 116.98697998 -36.67224121 117.59114746 -37.3425293 118.21362305 C-38.03386963 118.84437744 -38.72520996 119.47513184 -39.4375 120.125 C-40.51221558 121.11850464 -40.51221558 121.11850464 -41.60864258 122.13208008 C-43.73370097 124.09401896 -45.86593187 126.04787092 -48 128 C-49.08882873 129.00098992 -50.17739993 130.00226009 -51.265625 131.00390625 C-53.20075743 132.78122708 -55.13822945 134.5560042 -57.078125 136.328125 C-60.20643985 139.18877655 -63.3236772 142.0610975 -66.4375 144.9375 C-67.24803833 145.68616333 -67.24803833 145.68616333 -68.07495117 146.44995117 C-69.16964892 147.46120612 -70.26429396 148.47251812 -71.35888672 149.48388672 C-74.61239388 152.48958138 -77.86763876 155.49339394 -81.12255859 158.49755859 C-84.39206373 161.51533642 -87.66071313 164.53403662 -90.9284668 167.55371094 C-92.54216594 169.04372449 -94.15778118 170.53164053 -95.7734375 172.01953125 C-97.9970787 174.06883572 -100.20857645 176.13039474 -102.4140625 178.19921875 C-103.50520081 179.2161539 -104.59634638 180.23308128 -105.6875 181.25 C-106.19289307 181.72832275 -106.69828613 182.20664551 -107.21899414 182.69946289 C-110.77421933 186 -110.77421933 186 -113 186 C-114.94987346 174.10872623 -116.52254894 162.18065719 -117.91516113 150.21279907 C-118.09527729 148.66665407 -118.27729391 147.12072917 -118.46130371 145.57504272 C-121.28483479 121.76234291 -121.28483479 121.76234291 -115.875 112.625 C-114.9520498 110.97340491 -114.03302389 109.3196129 -113.1171875 107.6640625 C-112.61670898 106.76719727 -112.11623047 105.87033203 -111.60058594 104.94628906 C-108.89839522 99.97221378 -106.40718524 94.89379665 -103.89971924 89.81948853 C-98.48539176 78.87017644 -93.03983877 67.92757087 -87.16772461 57.21459961 C-86.30722396 55.58265285 -85.50652673 53.91883537 -84.74047852 52.24047852 C-81.12655012 44.7243943 -77.39613489 41.5878883 -69.9375 38.0625 C-67.95452863 37.05444146 -65.97278591 36.04396289 -63.9921875 35.03125 C-62.99026367 34.52980469 -61.98833984 34.02835938 -60.95605469 33.51171875 C-56.40168721 31.18262696 -51.98577944 28.62952152 -47.5625 26.0625 C-45.83641706 25.06947846 -44.10984867 24.07730028 -42.3828125 23.0859375 C-41.51172852 22.58545898 -40.64064453 22.08498047 -39.74316406 21.56933594 C-33.8449513 18.1950291 -27.92015969 14.86744577 -21.99951172 11.53271484 C-15.95577082 8.12313074 -9.95462183 4.65731214 -4.01171875 1.07421875 C-2 0 -2 0 0 0 Z " fill="#FDFDFE" transform="translate(823,184)"/>
<path d="M0 0 C21.1947186 11.08286233 41.90773538 23.10740096 62.60986328 35.08056641 C64.9852856 36.42548721 67.35742932 37.71928281 69.77685547 38.97802734 C70.40357651 39.312957 71.03029755 39.64788666 71.67601013 39.9929657 C73.41740888 40.92182939 75.1692154 41.83110541 76.92163086 42.73901367 C80.86322973 45.63402098 82.71615508 48.74298211 85 53 C85.37041916 53.6805394 85.74083832 54.3610788 86.1224823 55.0622406 C87.26614578 57.20887474 88.3753365 59.3703703 89.4765625 61.5390625 C89.88401199 62.33459534 90.29146149 63.13012817 90.71125793 63.94976807 C92.01939597 66.50637888 93.32230172 69.0656138 94.625 71.625 C95.52589697 73.38829912 96.42702101 75.15148224 97.32836914 76.91455078 C102.497691 87.03617464 107.64181846 97.17035553 112.66455078 107.36572266 C113.04208496 108.12933105 113.41961914 108.89293945 113.80859375 109.6796875 C114.33827759 110.75367798 114.33827759 110.75367798 114.87866211 111.84936523 C116.09157484 114.17563308 117.4347907 116.40116202 118.78125 118.65234375 C120.95557635 122.55439632 121.53070995 125.15796332 121.0625 129.6875 C121.0018335 130.33195068 120.94116699 130.97640137 120.87866211 131.64038086 C120.62770906 134.10005134 120.31695172 136.54793061 120 139 C119.78730469 140.69334473 119.78730469 140.69334473 119.5703125 142.42089844 C118.60583985 150.02797886 117.58587201 157.62626591 116.51611328 165.21923828 C116.15452616 167.86802647 115.81266449 170.5135077 115.49560547 173.16748047 C115.3698539 174.19125038 115.3698539 174.19125038 115.24156189 175.23570251 C115.009033 177.14012095 114.78443346 179.04550267 114.56030273 180.95092773 C114 184 114 184 112 187 C104.19645488 179.85729563 96.41108547 172.69531836 88.64111328 165.51611328 C85.92822414 163.00985896 83.21405141 160.50499554 80.5 158 C79.41666043 157.00000676 78.33332709 156.00000676 77.25 155 C76.71375 154.505 76.1775 154.01 75.625 153.5 C69.66666667 148 63.70833333 142.5 57.75 137 C57.21310547 136.50443604 56.67621094 136.00887207 56.12304688 135.49829102 C55.046099 134.50412298 53.96927488 133.50982086 52.89257812 132.51538086 C50.08757779 129.92500555 47.2800884 127.33740266 44.46875 124.75390625 C43.88802734 124.21958984 43.30730469 123.68527344 42.70898438 123.13476562 C41.60692394 122.12087002 40.50411487 121.10778726 39.40039062 120.09570312 C37.92615725 118.73850236 36.46286412 117.36944753 35 116 C34.13117188 115.33226562 33.26234375 114.66453125 32.3671875 113.9765625 C28.56727869 109.19845934 27.59886011 103.66269034 26.125 97.8125 C25.78520088 96.51640614 25.44370475 95.2207561 25.10058594 93.92553711 C24.39801488 91.26435217 23.7045098 88.60106224 23.01855469 85.93554688 C21.47906652 79.96448754 19.85944526 74.01499699 18.25 68.0625 C17.95754395 66.97235596 17.66508789 65.88221191 17.36376953 64.7590332 C15.670165 58.44628562 13.91631125 52.15574435 12.09375 45.87890625 C10.15974005 39.11176009 8.39598024 32.29581785 6.58178711 25.49584961 C4.75312179 18.68072861 2.83291302 11.92689441 0.62890625 5.22265625 C0 3 0 3 0 0 Z " fill="#FDFDFE" transform="translate(450,183)"/>
<path d="M0 0 C0.38236816 0.88800293 0.38236816 0.88800293 0.77246094 1.79394531 C2.12820057 4.23039387 3.50087576 5.52454672 5.640625 7.296875 C9.80486316 10.82277187 13.78566527 14.50216115 17.75 18.25 C26.84215342 26.80788207 35.95047251 35.33719376 45.453125 43.44140625 C47 45 47 45 47 47 C46.35264893 47.18062988 45.70529785 47.36125977 45.03833008 47.54736328 C33.85092239 50.67048582 22.66504094 53.79769988 11.5 57 C1.96809 59.73260179 -7.57914061 62.4086966 -17.12890625 65.078125 C-33.99035573 69.79191923 -50.84824049 74.51999155 -67.6875 79.3125 C-68.51838135 79.54855957 -69.3492627 79.78461914 -70.20532227 80.02783203 C-76.07824213 81.70752433 -81.89927878 83.51532567 -87.69921875 85.43359375 C-90 86 -90 86 -92 85 C-86.08757149 78.99888506 -80.21152355 73.03991593 -73.79296875 67.57421875 C-71.33279825 65.41419977 -69.07035076 63.08069726 -66.77734375 60.74609375 C-64.93406426 58.93522357 -63.02177201 57.24678646 -61.0625 55.5625 C-58.25423653 53.14382221 -55.60029407 50.64100317 -53 48 C-49.79970478 44.74970017 -46.45775424 41.75275755 -43 38.78125 C-40.21114467 36.29742572 -37.62313017 33.63288563 -35.00390625 30.97265625 C-32.41753849 28.42662171 -29.6846472 26.07978443 -26.93359375 23.71484375 C-25.04505403 22.03995701 -23.26844352 20.30052413 -21.5 18.5 C-18.49115823 15.43657607 -15.31646525 12.63802575 -12.05859375 9.84375 C-9.11309409 7.20565543 -6.39038568 4.3660025 -3.6640625 1.50390625 C-2 0 -2 0 0 0 Z " fill="#FDFDFD" transform="translate(459,305)"/>
<path d="M0 0 C9.22862327 -0.1557717 18.3983443 0.3362028 27.60546875 0.875 C29.18156918 0.96495284 30.75768543 1.05462903 32.33381653 1.14404297 C36.44544328 1.37802942 40.55684699 1.61572789 44.66821289 1.85424805 C48.87828765 2.09781958 53.08856625 2.33781359 57.29882812 2.578125 C65.53275364 3.048618 73.76644658 3.52303985 82 4 C80.66294709 8.09509568 79.17269163 11.94923702 77.328125 15.84375 C76.82925781 16.92527344 76.33039063 18.00679688 75.81640625 19.12109375 C74.76935448 21.3796967 73.70935609 23.63234135 72.63671875 25.87890625 C72.14300781 26.96042969 71.64929688 28.04195313 71.140625 29.15625 C70.68204102 30.13400391 70.22345703 31.11175781 69.75097656 32.11914062 C68.57305503 36.6378253 70.22019226 39.52263546 72.32861328 43.51708984 C73.06700439 44.72679443 73.06700439 44.72679443 73.8203125 45.9609375 C74.35527344 46.84394531 74.89023437 47.72695313 75.44140625 48.63671875 C76.27478516 49.99216797 76.27478516 49.99216797 77.125 51.375 C77.96998047 52.76525391 77.96998047 52.76525391 78.83203125 54.18359375 C80.21606043 56.45903155 81.60548922 58.7309763 83 61 C79.56438138 61 78.95506493 60.49833922 76.2890625 58.5 C75.54978516 57.95085937 74.81050781 57.40171875 74.04882812 56.8359375 C72.8490332 55.92714844 72.8490332 55.92714844 71.625 55 C70.78646484 54.37351562 69.94792969 53.74703125 69.08398438 53.1015625 C61.9685037 47.77153553 54.90650495 42.37010925 47.84472656 36.96923828 C42.06041055 32.55051549 36.23940418 28.18682947 30.375 23.875 C29.61131104 23.31321045 28.84762207 22.7514209 28.06079102 22.17260742 C23.93599857 19.14329302 19.80117631 16.12818283 15.66015625 13.12109375 C14.34942139 12.16517334 14.34942139 12.16517334 13.01220703 11.18994141 C11.33270923 9.96527442 9.65022075 8.74469524 7.96435547 7.52880859 C7.2117041 6.97918457 6.45905273 6.42956055 5.68359375 5.86328125 C4.68670532 5.14072144 4.68670532 5.14072144 3.66967773 4.40356445 C2 3 2 3 0 0 Z " fill="#1F255B" transform="translate(776,423)"/>
</svg>
